<svg xmlns="http://www.w3.org/2000/svg" viewBox="0 0 500 500"><g id="freepik--Pool--inject-79"><g id="freepik--pool--inject-79"><ellipse cx="249" cy="281.45" rx="226.84" ry="130.97" style="fill:#e0e0e0"></ellipse><path d="M22.62,289.44c3.24,30.8,25.21,61.08,66,84.62,88.59,51.14,232.21,51.14,320.8,0,40.77-23.54,62.73-53.81,66-84.61-3.34-30.72-25.32-60.89-66-84.36-88.59-51.15-232.21-51.15-320.8,0C48,228.56,26,258.72,22.62,289.44Z" style="fill:#BA68C8"></path><path d="M409.4,205.09c-88.59-51.15-232.21-51.15-320.8,0C48,228.56,26,258.72,22.62,289.44a79.71,79.71,0,0,0,3.53,16.37c11.34-15.26,28-29.48,49.51-41.88,46-26.57,107.58-41.23,173.34-41.23s127.31,14.66,173.36,41.23c21.37,12.34,38.07,26.67,49.44,42.05a80.51,80.51,0,0,0,3.58-16.53C472,258.73,450.06,228.56,409.4,205.09Z" style="opacity:0.1"></path><path d="M355.74,371.51l32.78-18.93,28.83,16.64c.93-.59,1.85-1.18,2.76-1.78l-28.66-16.55L424.23,332l23,13.26c.7-.73,1.38-1.46,2.06-2.19l-22.09-12.76,32.78-18.92,7.9,4.56c.42-.89.82-1.79,1.21-2.68l-6.18-3.57L471,305c-.59-.78-1.2-1.56-1.82-2.33L459.94,308l-34.25-19.78h0l17.8-10.27c-.84-.64-1.69-1.28-2.55-1.91L422.76,286.5,390,267.58l18.86-10.89c-1-.52-2.12-1-3.18-1.54l-18.61,10.74L354.27,247l12.33-7.12c-1.26-.4-2.54-.79-3.82-1.18l-11.44,6.61-27.65-16q-6.21-1.12-12.52-2.07l-31.24,18-32.78-18.93,6.25-3.61c-1.47,0-2.93,0-4.4,0h-1.42l-3.36,1.94L241,222.79c-1.88,0-3.75.07-5.62.13l5.92,3.42-32.78,18.93-29.18-16.85c-1.5.25-3,.52-4.5.79L205.58,247,172.8,265.88,140,247l28.77-16.61c-3.1.61-6.17,1.25-9.21,1.94l-22.49,13L129,240.6c-1.25.4-2.49.82-3.72,1.23l8.88,5.13-32.79,18.92L87.2,257.69l-3.1,1.59,14.36,8.29L65.68,286.5l-12.8-7.39c-.84.65-1.65,1.3-2.46,2l12.33,7.12L30,307.12l-3.34-1.94-.48.64c.62,1.9,1.31,3.8,2.08,5.68l1.74-1,32.78,18.92-17.24,10c.64.75,1.3,1.49,2,2.24l18.2-10.51L98.46,350l-24.95,14.4c.88.62,1.77,1.23,2.67,1.84l25.21-14.55,32.78,18.93L109.7,384.78c1.1.5,2.19,1,3.3,1.48l24.1-13.91,32.78,18.92L154,400.42c1.35.36,2.73.68,4.09,1L172.81,393l28.61,16.52c4,.49,8,.93,12,1.29L244.22,393l32,18.48q6.09-.42,12.14-1l28.75-16.6,16.06,9.28c1.38-.32,2.75-.66,4.13-1l-17.27-10,32.78-18.92,26.64,15.37c1.15-.46,2.32-.9,3.45-1.39Zm32.78-22.31-34.25-19.77,32.78-18.93,34.25,19.77ZM172.8,310.5l32.78,18.92L172.8,348.35,140,329.42Zm-35.7,17.23-32.79-18.92,32.78-18.93,32.79,18.93Zm175.61-18.92-32.78,18.92-32.78-18.92,32.78-18.93Zm-29.85-20.62,32.78-18.92,32.78,18.92-32.78,18.93Zm-38.64,18.93-32.78-18.93,32.78-18.92L277,288.19Zm-2.93,1.69-32.78,18.92-32.78-18.92,32.78-18.93Zm-32.78,22.3L241.29,350,208.51,369,175.73,350Zm2.93-1.69,32.78-18.92L277,329.42l-32.78,18.93Zm68.49,1.69L312.71,350,279.93,369,247.15,350Zm2.93-1.69,32.78-18.92,32.78,18.93-32.78,18.92Zm35.71-20.61,32.77-18.93,32.79,18.93-32.78,18.92Zm138.44.85-32.78,18.92L390,308.81h0l32.78-18.93Zm-37.18-21.47-32.78,18.93-32.78-18.93,32.78-18.92Zm-35.71-20.61L351.34,286.5l-32.78-18.92,32.78-18.93ZM315.64,228,348.42,247l-32.78,18.93L282.86,247Zm-2.93,39.55L279.93,286.5l-32.78-18.92,32.78-18.93ZM244.22,228,277,247l-32.78,18.93L211.44,247Zm-35.71,20.62,32.78,18.93L208.51,286.5l-32.78-18.93Zm-2.93,39.54L172.8,307.12,140,288.19l32.78-18.92Zm-68.49-39.54,32.78,18.92L137.09,286.5l-32.78-18.93Zm-35.71,20.62,32.79,18.92-32.78,18.93L68.61,288.19ZM32.9,308.81l32.78-18.93,32.78,18.93L65.68,327.73Zm35.71,20.61,32.78-18.92,32.78,18.92-32.78,18.93ZM104.32,350l32.78-18.93L169.88,350,137.1,369ZM140,370.66l32.78-18.93,32.78,18.93-32.77,18.92Zm68.49,39.54-32.78-18.93,32.78-18.92,32.78,18.92Zm2.93-39.54,32.78-18.93L277,370.66l-32.78,18.92Zm70,40.39-34.25-19.78h0l32.78-18.92h0l34.25,19.77Zm35.71-20.62-34.25-19.77,32.78-18.93h0l34.25,19.78Zm2-40.06-.57-.33h0l32.78-18.92h0l34.24,19.77-32.77,18.92Z" style="fill:#fff;opacity:0.15"></path><path d="M373.19,390.94c-3.46-1.37-8.15-2.73-11.7-4s-6.72-3.42-6.81-5.65c-.11-2.72,4-4.37,7-6.22,7.52-4.79,7.42-13.22-.21-19.34-2.4-1.9-5.42-3.6-7.54-5.61s-3.18-4.55-1.23-6.26c3.33-2.89,11.72-1.25,17.82-2,8.53-1,11.94-6.79,19.82-8.67,8-1.93,18.26.62,26.93,3.37,9.3,3,18.51,6.31,25.92,10.84.39.24.77.48,1.14.73q2.7-2.64,5.18-5.33a48.28,48.28,0,0,1-9.62-4c-3.82-2-7.31-4.48-8.4-7.25s.24-5.27-.54-8c-.81-2.84-3.84-5.48-6.8-8-4.14-3.46-8.53-7-14.57-9.32-6.35-2.45-13.78-3.28-20.92-4s-14.55-1.57-20.94-3.94-11.45-6.91-9.92-10.74c.79-2,3.1-3.46,4.73-5.18,4.72-4.94,3.05-12.09-4-17.21-1.91-1.4-4.19-2.67-5.52-4.21-1.85-2.14-1.64-4.51-.92-6.63a11.88,11.88,0,0,1,3.28-5.13c4.66-4.2,14-5.87,23.29-5.59,12.73.42,27.06,4.94,31.87,12.14,4.15,6.2.31,12.59,2.7,19,3.08,8.23,15.67,14.8,27.35,20.57L470.37,310q.87-2.26,1.59-4.53a54.55,54.55,0,0,1-9.15-6.35c-1.9-1.68-3.56-3.7-2.66-5.38,1.71-3.22,10.05-2.4,15.18-3.94,0-.12,0-.24.05-.35a80.51,80.51,0,0,0-4.84-19.93L468,266c-2-2.86-4.07-5.74-4.53-8.66a6.85,6.85,0,0,1,0-2.26,105.6,105.6,0,0,0-7.15-10.52c-3.53,2.11-6.69,4.43-8.74,7.17-2.57,3.44-3.27,7.63-.65,11.53,2.81,4.17,8.94,7.53,13,11.43s5.38,9.45-.57,11.43a26.12,26.12,0,0,1-6.22.9,55.67,55.67,0,0,1-21.34-3.35,17.84,17.84,0,0,1-7.42-6c-3-4.28-3.54-9.42-4.06-14.25-.47-4.41-1.14-9.25-4.09-13.24-2.47-3.35-6.41-5.32-8.73-8.8-1.57-2.36-2.16-5.07-3.19-7.63-4.53-11.3-21.67-9.89-26.24-20.54-2.32-5.34,4.52-10.16,13.27-11.16a50,50,0,0,1,13.16.42c-4.38-2.39-8.86-4.68-13.48-6.83l-2.61-.1a3.71,3.71,0,0,1-1.83-.43,3.15,3.15,0,0,1-1.25-2q-4.25-1.84-8.59-3.56a14.62,14.62,0,0,1,.25,1.57c.28,3.07-.62,6.37-4.74,7.92-2,.76-4.51,1-6.33,1.86a5.88,5.88,0,0,0-3.19,3.56c-1.48,4.56,1.89,10,8.46,13.5,3.48,1.86,7.69,3.22,11.39,4.91a39.2,39.2,0,0,1,8.88,5.5c3.05,2.61,5.06,6.27,1.68,8.12-1.52.88-3.84,1.11-6,1.35-10.08,1-22.31,1.61-30.41-3.06-5.95-3.42-7.23-8.45-11.47-12.59a41.24,41.24,0,0,0-9.48-6.4,148.72,148.72,0,0,0-44.38-14.63c-5.63-.94-12.09-1.91-15.38-4.85-1.94-1.74-2.27-3.76-2.51-5.69-.82-5.92-.35-12.18,4-15.85,1.54-1.29,6.61-3.62,7.61-6.3-4.1-.38-8.21-.71-12.33-1,.33,1.8-3,2.75-5.33,3.79-2.62,1.19-4.31,3-4.65,5a15,15,0,0,1-.44,3.13,3.68,3.68,0,0,1-3.45,2c-2.53.1-4.68-1.38-6.83-2.38-8-3.78-19.12-2-28.11-4.62a53.11,53.11,0,0,1-8.4-3.61c-1.56-.75-3.15-1.48-4.75-2.2q-5.15.51-10.25,1.15c1.3.69,2.59,1.38,3.83,2.09,7.47,4.22,15.31,9,25,10.19,6.63.79,13.19-.29,19.77.84,10.25,1.78,17.22,9.57,13,14.58-1.64,2-4.54,3.4-7.08,5-5,3.13-8.76,7.08-9.25,11.61s2.6,9.64,9.07,13c3.68,1.89,12.17,3.69,10.37,5.93-2.85,3.55-14.3-1.12-21.32-2.78a59.77,59.77,0,0,0-16.28-1.92c-7.06.32-14.17,1.6-21.5-.17-5.3-1.28-12.56-3.9-15.68-9.22-2.51-4.31-1.33-8.86-4.59-13-4.33-5.51-14.89-8.64-24.46-11.09s-20.16-5.27-25.17-10.64l-.06-.06q-4.24,1.41-8.41,2.93c2.06,2.86,4.57,6,4,8.94-.4,2.17-2.36,3.43-4.17,4.51-2.3,1.4-4.8,2.81-7.76,2.57-3.55-.26-6.84-2.86-10-5.09-1.06-.74-2.16-1.46-3.3-2.15-3.76,1.75-7.44,3.6-11,5.52a47.25,47.25,0,0,1,13.73,7.19c2.69,1.89,5.36,3.91,6.45,6.19.83,1.76.61,3.51,1.15,5.28,1.31,4.52,7.14,8.52,13.09,11.95,5.66,3.26,12.41,7.35,10.78,11.35a17.41,17.41,0,0,1-2.28,3.09c-2.27,3.19-.81,7.43,3.58,10.46,5.12,3.53,13.51,5.35,17.4,9.31s.77,9.17-6.2,10.13-15.31-1.77-21.8-.35c-6.21,1.36-8.4,6-14.82,7.09-6.25,1-13.24-1.73-19.9-3.27A56.47,56.47,0,0,0,78,278.61c-3.46.4-6.68,1.17-10.23,1.37a24.9,24.9,0,0,1-10.39-2,32,32,0,0,1-11.12-7.39c-3.18-3.37-4.17-7.39-1.82-10.48,3.65-4.77,13.65-6.27,22.54-7.63s18.64-3.62,20.38-8.9c1.9-5.65-6.32-11.48-12-16.95a30,30,0,0,1-6.48-8.55q-3.54,2.66-6.82,5.41c.43.57.87,1.13,1.35,1.66,1.9,2.17,4.12,4.07,5.94,6.33s3.21,5,2.91,7.58c-.48,3.88-4.62,5.65-8.53,6.1-4.5.51-9.25,0-13.79.42s-9,2-11.18,5.71c-.78,1.35-1.26,3-2.58,3.78a4.14,4.14,0,0,1-2,.53,91.69,91.69,0,0,0-6.68,13.87,13.82,13.82,0,0,0,1.43,1.57c3.59,3.37,9.69,5.59,15.26,7.9s11.3,5.25,12.92,8.94c1.45,3.29-.73,6.41-.84,9.67-.15,5,4.63,10.12,10,14.64s11.48,8.86,14.86,13.84c1.8,2.7,2.74,5.62,1.29,8.08s-5,4.08-8.13,5.82a26.68,26.68,0,0,0-7.83,6c-2.22,2.71-1.6,6-2.56,9.23a7.6,7.6,0,0,1-.61,1.43A188.28,188.28,0,0,0,88.6,374.06q8.16,4.71,16.91,8.83a26.91,26.91,0,0,1,6.73,3c8.3,3.63,16.94,6.88,25.84,9.77-5.35-3-9.33-6.61-9.53-10.49-.13-3.08,2.2-5.83,5.25-8.11a35.92,35.92,0,0,1,19.15-6.7c8-.53,17.31,1.45,22.69,5.5,3.55,2.69,5.09,6,7.36,9a18.76,18.76,0,0,0,11.22,7.35c7.09,1.54,14-1.14,21.25-.08,7.62,1.1,12.58,5.74,16.42,9.87l9.61,10.29c2.73.06,5.47.1,8.2.1-1.78-2.62-3-5.3-4.54-8-6.34-11.12-18.65-21.62-34.62-29.53-8.19-4-17.41-7.47-24.12-12.34s-10.22-11.83-4.73-16.11c5.66-4.44,18.37-4,28.11-1s17.58,7.8,26.37,11.76a26.8,26.8,0,0,0,8.65,2.61c8,.68,11.29-5.88,19.11-6.1.85,0,3.34.13,4.52,1.47,2.08,2.42-.22,7.14-2.4,9.78s-5.95,4.64-8.56,7.11-3.93,5.88-1,8.75c4.57,4.5,16.67,5.28,20.68,9.9,3.78,4.34-2.3,8.56-1.59,13.15.37,2.46,2.67,4.85,5.15,7.21q10.93-.88,21.71-2.39a52.74,52.74,0,0,1-9.25-5.36c-4.05-3.22-5.56-7.92-1-10.08,2.25-1.08,5.67-1.38,8.44-2,8.36-4.56,13.73-10.87,15.17-17.83.77-3.87.38-7.91,1.27-11.77a13.52,13.52,0,0,1,8.66-9.72,7.12,7.12,0,0,1,2.66-.58,11.87,11.87,0,0,1,3.89.86c7.66,2.63,16,5.75,19.07,10.47,2.56,3.95.63,8-2.84,11.16-3.22,2.93-7.94,5.81-6.74,9.57.77,2.39,3.9,4.54,7.4,6.16a85.79,85.79,0,0,0,15,4.72c3.09-1.05,6.13-2.16,9.15-3.3ZM260.78,223.28c-3.62-3.56-5.44-7.79-3.53-11.28,3-5.53,14.61-7.71,25.23-6.57s20.54,4.83,30,8.44c14,5.32,29.06,11.5,34.46,20.37a4.65,4.65,0,0,1,.94,3.41,6.89,6.89,0,0,1-2.43,2.94c-5.8,5-11.42,10.59-10.28,17.09.84,4.81,5.32,9.53,10.58,13.72,2.45,2,5.29,4.26,4.5,6.41-.59,1.55-3,2.5-4.09,3.9-2.58,3.25,1.81,8.47-3,10.62-4.15,1.84-11.45-.77-13.92-3.94s-2.05-6.54-3-9.83c-1.48-5.22-6.7-10.41-14.16-14-4.93-2.39-11.6-5.07-11-8.41a9.12,9.12,0,0,1,1.29-2.36c2.31-3.82-.62-8.9-6.8-11.83-7.63-2.79-13.56-5.93-20.44-9.37C269.71,229.82,264.42,226.84,260.78,223.28Zm-106.1,31.87c-1.61-1-3.15-2.11-3.35-3.35-.35-2.2,3.55-3.43,4.88-5.35,2.26-3.26-3.25-7.2-8.34-10-4.74-2.57-9.67-5.12-13.26-8.24-5.45-4.76-7.26-10.64-4.73-15.46s9.33-8.53,17.91-9.74c9.36-1.28,22.12,1.24,26.24,6.89a16,16,0,0,1,2.07,4.94c2.54,7.82,10.72,16.31,23.87,19.42,8.64,2,17.66,1.39,26.45,1.34a191.24,191.24,0,0,1,49.26,6.32c8.17,2.17,17.32,6,17.56,10.87.15,3.33-4.25,5.84-9.44,6.81s-11.18.64-17,.33c-3.28,1.11-9.76,3.33-10.93,6.06-.91,2.18.72,4.66,1.68,7s1,5.11-2.13,6.33c-2.81,1.08-7.14.42-10.3-.92s-5.54-3.21-8.12-4.9a65,65,0,0,0-25.63-9.6c-12.64-1.89-25.3,0-37.89-2.11A54.17,54.17,0,0,1,154.68,255.15Zm53.26,126.7c1.41,1.22,2.5,3,.81,3.76a7.4,7.4,0,0,1-3.17.34c-5-.16-10.27.76-14.43-2.53-4-3.12-5.5-7-9.65-10-6.72-5-17-8.39-27.16-9s-20,1.42-26,5.55c-1.79,1.23-3.27,2.61-5.27,3.73-5.8,3.25-15.69,3.59-24.23,1.57a46.17,46.17,0,0,1-20.68-10.77,15.48,15.48,0,0,1-4.33-5.89c-1.6-4.92,2.79-9.22,7.84-12.67s11-6.57,13.47-11c2.23-4,1.12-8.91-3-13C85.82,315.51,73.31,311.3,68,304.7c-5.23-6.44-1.38-14.14,8.45-16.83,6.23-1.72,14-1.53,21.37-.32a91.14,91.14,0,0,1,31.38,11.53c7.12,4.23,13.5,9.85,12,15.07-1.35,4.78-9.16,8.17-8.3,13.2.71,4.23,7.31,7.8,13.66,10.45s13.52,5.25,17,9.24c2.92,3.35,2.63,7.07,4.7,10.58C174.3,367.93,197.22,372.51,207.94,381.85Zm9.27-60.14c-1.35,2.84-5.26,5-5.89,8s1.44,6.71-2.74,8c-2.77.85-6.51-.1-9.89-.36-6.39-.48-11.7,1.6-17.55,2.54s-15.91-1-21-3.66c-3.34-1.76-7.56-4.57-10.17-7.81s-2.56-6.95.06-9.69c3.24-3.41,10.36-6.21,8-10.34-.93-1.67-3.31-3-5.57-4.33q-8.38-4.71-16.79-9.47c-3.34-1.9-6.94-4.05-7.43-6.57-.36-1.88,1.2-3.58,3.33-4.81,6.45-3.65,18.66-3.43,26.76.48,5.23,2.55,8.47,6.16,13,9.11,5.38,3.49,12.43,5.95,19.33,8.33s13.92,4.81,19.37,8.28S219.05,317.7,217.21,321.71Zm50.88,16.62a4,4,0,0,1-.59,1.18c-5.27,4.78-8.21,11.54-18.11,12.81-6.69.85-14.28-2-19.06-5.51-5.82-4.29-8.85-9.71-8.16-14.65.66-4.69,4.53-8.92,4-13.75-.41-3.87-3.66-7.72-7.75-11.16A70.7,70.7,0,0,0,201,296.76c-6.11-2.66-12.87-4.79-18.59-7.74s-10.53-7.08-10.19-11.11c.29-3.52,4.55-6.31,9.95-7.56s11.83-1.2,18.05-.54a103.91,103.91,0,0,1,34.48,9.51c3.88,1.9,7.64,4.21,8.77,6.95.83,2,.18,3.91-.06,5.83-.47,4,1.53,8.77,7.76,11.24,4.3,1.7,9.56,1.9,14.3,3S275,310.64,273,313c-.68.81-2,1.31-3,2-3.35,2.39-1.66,6.2-.69,9.54A18.71,18.71,0,0,1,268.09,338.33Zm68.65,6.57c-1.87,2.07-7.38,1.47-11.65,1.59-7.43.21-13.11,3.32-15.88,7.09s-3.16,8.16-3.48,12.46c-.26,3.19-.52,6.4-.77,9.61-.16,2-.34,4.05-1.7,5.78-2.67,3.44-9.93,5-16.92,4.26s-14.29-3.47-17.89-7.22a15.27,15.27,0,0,1-1.06-1.51c-1.24-3.2.37-4.87,2.56-7.61,1.44-1.8,3.58-3.34,5.13-5.11,3.61-4.15,3.78-9.23,3.9-14.14.21-8.57.41-17.11.63-25.68.09-3.19.18-6.5,2.58-9.18,3.12-3.51,10.19-5.46,17.54-4.88s14.61,3.7,18,7.71c2.23,2.65,2.83,5.53,4.13,8.31A31.16,31.16,0,0,0,332,337.94C334.93,340.09,338.6,342.8,336.74,344.9Zm7.16-12.13c-8.79-4.5-5.4-12.38-11.31-18.16-4.21-4.11-12.36-6.43-20-7.94a107.31,107.31,0,0,0-18-2.24c-5.72-.15-11.31.37-17.06-.19a43.14,43.14,0,0,1-16.22-4.79c-3.09-1.7-5.75-4.1-5-6.27,1.11-3.14,8.38-3.66,11.48-6.15,4.48-3.65-1.27-9.34-1.26-14.11,0-5.65,9.2-9.66,19.07-9.22s19.61,4.61,25.15,9.81c4.6,4.31,6.63,9.17,10,13.76a54.65,54.65,0,0,0,13.8,12.82,42.62,42.62,0,0,0,10.29,5.23c8.94,3,19.08,2.36,28.64,2.29a103.47,103.47,0,0,1,20.74,1.59c6.85,1.38,13.51,3.92,17.59,7.53,2.84,2.5,5.5,6.43,3.27,8.7s-7.85,1.94-12.13.21a10,10,0,0,0-2.41-.4,63.08,63.08,0,0,0-17.64,1.58c-6.47,1.74-11.32,4.83-17.59,6.75S350.06,335.94,343.9,332.77Z" style="fill:#fff;opacity:0.25"></path><g style="opacity:0.6000000000000001"><path d="M409.4,205.09c-88.59-51.15-232.21-51.15-320.8,0-16.07,9.27-29.2,19.6-39.44,30.59.85-.14,1.72-.23,2.56-.38a22,22,0,0,0,3-.71,40.18,40.18,0,0,1,5.83-1.49c3-.47,6.14-.71,9-1.77,11.67-4.26,15.56-19.82,26.74-25.24,6.61-3.2,14.44-2.19,21.59-3.89,15.32-3.64,26.2-19.34,41.87-20.88,11.88-1.17,23.17,6.27,35.1,6,17.88-.47,32.45-18,50.29-16.76,9.09.64,17.18,6.17,26.18,7.62,11.74,1.88,23.72-3.35,35.49-1.7,10.39,1.45,19.27,8,29.16,11.5,12.82,4.51,26.77,4,39.86,7.41,1.81.48,3.66.81,5.44,1.36,3.73,1.16,5.6,4.25,7.93,7.14A54.86,54.86,0,0,0,413.19,221c7.79,2.8,16.91,4.28,21.81,10.95,2.86,3.9,3.76,9,6.89,12.73,5.83,6.9,17.58,6.83,22.52,14.39,4.06,6.2,1.62,14.74,4.56,21.54,1.4,3.23,3.87,5.77,6.34,8.32C471.77,258.37,449.82,228.42,409.4,205.09Z" style="fill:#fff"></path><path d="M35.13,268.2a19.12,19.12,0,0,0,5.13-9.77c.69-3.61.32-7.31.6-11a20.76,20.76,0,0,1,.32-2.34c-10.72,14.14-16.91,29.15-18.56,44.3.12,1,.25,2.09.41,3.14.79-1.19,1.46-4.3,1.78-5.69.87-3.69.73-7.71,2.61-11S32.58,270.8,35.13,268.2Z" style="fill:#fff"></path></g></g></g><g id="freepik--Character--inject-79"><g id="freepik--character--inject-79"><g id="freepik--Bottom--inject-79"><path d="M329,404q-5.7,1.23-11.5,2.29l-4.18.71-3.9.67A380.83,380.83,0,0,1,266.5,412c3.68-5.47,13.94-20.72,24.36-36.51h0c6.29-9.55,12.67-19.29,17.69-27.2l2.38-3.79v0l0,0c3.06,4.41,6.1,11,8.93,19.69h0q.9,2.7,1.75,5.67A287.07,287.07,0,0,1,329,404Z" style="fill:#ffbda7"></path><path d="M265.5,412.07l1,0a380.77,380.77,0,0,0,42.93-4.32c5.88-15.27,9.14-42.23,1.54-63.16v0a9.66,9.66,0,0,1-2.38,3.79c-4.12,4.4-15,10.92-43.37,9.71-34.81-.92-55.33-14.44-55.33-14.44a28.57,28.57,0,0,1-4,7.93c-3.23,4.91-8,10.74-13.26,17.6l0,0a235,235,0,0,0-15.87,22.92,93,93,0,0,0-6.43,12.25,383,383,0,0,0,92.47,7.87Z" style="fill:#ffbda7"></path><path d="M319.9,364.22h0c0,15.26-2,29.93-6.58,42.81l0,0-3.88.63A380.83,380.83,0,0,1,266.5,412l-1,0a106.17,106.17,0,0,0-15.65-19.79c-13.88-13.64-40-30.93-57.21-23.16l-.06,0a1,1,0,0,1,.1-.16l.14-.21c.23-.33.59-.88,1.06-1.6a189.11,189.11,0,0,1,11.8-15.69l.22,0c19.08,3.62,56.64,25.54,82.72,24.17.78,0,1.51-.1,2.24-.17h0c26.19-2.86,20.35-29.85,20.09-31v0l0,0C311.3,345,316.75,352,319.9,364.22Z" style="fill:#37474f"></path></g><g id="freepik--Top--inject-79"><path d="M245.74,282.19c-2.19-.48-4.19-1.72-6.37-2.52-8.59-3.13-16.35-3.26-23.26-10.26-3.5-3.54-6.25-8-10.61-10.4-7.4-4.07-17.81.1-20.68-10.48a20.53,20.53,0,0,1-.49-8.11c.29-1.94,1.56-4.21,1.17-6.13-1.3-6.36-6.85-12.26-4.87-18.44,1-3.14,3.83-5.5,4.59-8.71,1.23-5.2-3.34-10.07-3.53-15.41-.16-4.58,2.28-8.58,3-13,.8-5.2-1.34-8.61-3.67-13-4.35-8.25-.88-14.47,2.23-22.56,2.24-5.81,2.19-12.23,3.52-18.33,5.9-27.22,37-37.24,61.7-37.61a46.66,46.66,0,0,1,16.89,2.46c9.8,3.61,17.34,11.63,23.24,20.24,3.81,5.57,7.2,11.93,6.81,18.67-.3,5.1-2.77,10.16-1.58,15.12.73,3.09,2.79,5.67,4.1,8.55a18.74,18.74,0,0,1,1,12.69c-.81,2.9-2.34,5.69-2.26,8.71.12,4.56,3.79,8.12,5.82,12.21a17.08,17.08,0,0,1,1.32,11.71c-.51,2-1.39,3.87-1.77,5.89-.8,4.24.89,7.49,3.3,10.76,2.68,3.65,4.89,7.3,5.63,12.06,1.27,8.1-5.18,14.45-12.09,17.09-3.93,1.51-8.6,2.37-10.89,5.91-2.54,3.92-.86,9.06-1,13.73.54-.18-.42-2.37-.27-1.82A10.81,10.81,0,0,1,279.08,274c-6.76,1.65-13.49,1.93-20.18,3.23-3.74.72-6.21,4.25-9.89,5A7.65,7.65,0,0,1,245.74,282.19Z" style="fill:#263238"></path><path d="M196.8,116.34c.06-.06,0-.27-.09-.19-2.55,2.24-3.45,5.72-3.59,9-.19,4.29.81,8.61-.08,12.88-1.45,6.94-6.58,12.54-7.63,19.59-1,6.59,2.61,12.45,5.49,18.07a31.28,31.28,0,0,1,3.37,9c.61,3.72-.4,7.24-1.68,10.7-1.2,3.26-2.67,6.59-2.67,10.12a11.72,11.72,0,0,0,1.08,4.87c.77,1.73,1.7,3.36,2.31,5.16a5.66,5.66,0,0,1,.2,2.83c0,.13.14.31.19.12.91-3.54-1.73-6.5-2.63-9.72-1-3.51.16-7.11,1.38-10.4s2.72-6.63,2.94-10.19a20.17,20.17,0,0,0-1.91-9.16c-2.52-5.88-6.83-11.4-7.25-18-.47-7.29,4.63-13.29,6.83-19.89a20.08,20.08,0,0,0,1-5.31,49.79,49.79,0,0,0-.27-6.46c-.3-3.69-.47-7.73,1.47-11A9.37,9.37,0,0,1,196.8,116.34Z" style="fill:#455a64"></path><path d="M205,208.64c-2.35-4.25-5.19-8.86-4.67-13.93.46-4.55,3.6-8.33,3.89-12.94.51-8.21-5.82-15-5.85-23.14a21.21,21.21,0,0,1,1.73-7.19c.79-2.23,1.53-4.68.68-7-.08-.23-.31-.16-.26.08,1.08,4.54-2.37,8.59-2.71,13-.31,4,1.18,7.84,2.62,11.47s3.23,7.69,3.18,11.82c-.06,4.68-3.13,8.46-3.85,13-.86,5.48,2.1,10.67,5,15.08C204.94,209.15,205.13,208.86,205,208.64Z" style="fill:#455a64"></path><path d="M277.68,204.48a11.75,11.75,0,0,1-3.73-5.3,10.36,10.36,0,0,1-.15-6.16c.69-2.31,2.16-4.3,2.62-6.69a13,13,0,0,0-.35-6.13,12.62,12.62,0,0,0-3.39-5.49c-.17-.16-.21.21-.1.32a12.29,12.29,0,0,1,2.88,12.37c-.75,2.22-2.17,4.16-2.57,6.51a11.28,11.28,0,0,0,.52,5.61,10,10,0,0,0,4.14,5.32C277.78,205,277.81,204.6,277.68,204.48Z" style="fill:#455a64"></path><path d="M240.59,101c-4.37-1.84-9.83-1.69-13.48,1.62-1.83,1.67-2.55,4.07-4.1,6a16.62,16.62,0,0,1-5.77,4,21.45,21.45,0,0,0-6.2,3.88,7.25,7.25,0,0,0-2.26,5.84c.31,2.32,2,4.2,2.26,6.53.3,2.61-1.2,5-2.59,7.07a12,12,0,0,0-1.85,3.58,5.25,5.25,0,0,0,.37,3.55c1.15,2.53,3.95,4.7,3.34,7.76-.05.26.37.66.51.3.89-2.32-.77-4.53-2-6.35a7.91,7.91,0,0,1-1.52-3.27,5.65,5.65,0,0,1,.9-3.52c1.21-2.12,2.83-4,3.46-6.42a7,7,0,0,0,.1-3.24,14.73,14.73,0,0,0-1.19-3,8.5,8.5,0,0,1-1-3.37,6.11,6.11,0,0,1,1-3.34A13,13,0,0,1,216,114a35.89,35.89,0,0,0,6-3.39,10.51,10.51,0,0,0,2.27-2.44c.67-1,1.18-2.09,1.82-3.11a9.93,9.93,0,0,1,6.09-4.29,16.39,16.39,0,0,1,8.39.5C240.75,101.35,240.71,101,240.59,101Z" style="fill:#455a64"></path><path d="M290.57,193.77c-1.26-2-2.66-4-2.83-6.35a10.25,10.25,0,0,1,1.32-5.18c1.56-3.13,4.14-6.17,4.3-9.8a10,10,0,0,0-1.89-5.6,12.83,12.83,0,0,1-1.51-3.09,8.85,8.85,0,0,1-.08-3.8c.42-2.51,1.39-4.9,1.56-7.45a16,16,0,0,0-1.14-7.11c-1.61-3.95-5.16-7-6.11-11.28-.53-2.35.16-4.55,1-6.74a16.06,16.06,0,0,0,1.49-6.67c-.21-4.63-2.92-8.82-6-12.09-6.25-6.6-15.86-10.42-24.85-7.71a19.06,19.06,0,0,0-3.34,1.37c-.11,0,0,.32.09.27a23,23,0,0,1,14.18-1.31,26.32,26.32,0,0,1,11.84,6.36c3.35,3.08,6.38,7.11,7.08,11.72a13.08,13.08,0,0,1-1,6.81c-.79,2.07-1.7,4.15-1.6,6.41.17,4.18,3.32,7.44,5.3,10.89a15.85,15.85,0,0,1,2.11,6.52,21.17,21.17,0,0,1-1,7.36c-.59,2.24-1.08,4.6-.33,6.86.69,2.06,2.23,3.7,2.93,5.75,1.22,3.55-1.13,7-2.81,9.91a19.93,19.93,0,0,0-2.18,4.82,8.44,8.44,0,0,0,.44,5.49c1.55,3.67,5.39,7,4.54,11.33a4.48,4.48,0,0,1-1.26,2.34c-.25.24.18.74.45.53a5.25,5.25,0,0,0,1.7-5A13.68,13.68,0,0,0,290.57,193.77Z" style="fill:#455a64"></path><path d="M194.27,130.65c-.35,4.84-1,6.06-4.66,6.65,3.45,0,4.66,2.55,4.66,5.46.34-4.69,1-4.93,4.31-5.46C194.72,136.71,194.27,135,194.27,130.65Z" style="fill:#e0e0e0"></path><path d="M296.13,186.17c-.34,4.83-1,6.05-4.66,6.64,3.45,0,4.66,2.55,4.66,5.46.35-4.68,1-4.92,4.32-5.46C296.58,192.22,296.13,190.48,296.13,186.17Z" style="fill:#e0e0e0"></path><path d="M199.58,127.45c-.18,2.56-.53,3.2-2.46,3.52,1.82,0,2.46,1.34,2.46,2.88.18-2.47.55-2.6,2.28-2.88C199.82,130.65,199.58,129.73,199.58,127.45Z" style="fill:#e0e0e0"></path><path d="M291.56,182.61c-.18,2.55-.52,3.2-2.46,3.51,1.83,0,2.46,1.35,2.46,2.89.19-2.48.55-2.61,2.28-2.89C291.8,185.81,291.56,184.89,291.56,182.61Z" style="fill:#e0e0e0"></path><path d="M321.23,254.33c-17.4-23.57-31.51-37.2-41.85-41.44-13.42,1.22-50-4.78-50-4.78s-20.07,8-35.31,13.06c-12.28,4.09-8.78,7.87-8.65,18.49.07,6.14,0,28.47,12.48,56.69,8.24,18.65,12.27,30.88,12,47.24,39.3,23.18,104.79,34.6,101.14.21,0,0,4-21.92,3.05-41.73C332.79,285.23,327.87,263.33,321.23,254.33Z" style="fill:#ffbda7"></path><polygon points="199.66 301.79 208.08 273.15 203.47 309.75 199.66 301.79" style="fill:#f0997a"></polygon><path d="M279.38,212.89c15.33-1.26,23.66,1.71,37.13,9.76,15.24,9.12,76.87,40.12,76.87,40.12l-13.06,33.35c-18-6.24-53.51-16.9-78.33-27.78C279.48,258.47,279.38,212.89,279.38,212.89Z" style="fill:#ffbda7"></path><g id="freepik--Head--inject-79"><path d="M283.79,144.34c-4.07-24-9.79-33.23-16.3-36.1s-12.25-.07-15.6,6.18c-7.4-3.49-20.67-5.5-26.55,4.21-4.41,7.29-3.54,17.82-4.11,30.71-.62,13.81-7.54,14.73-9.67,11.4s-2.41-5.69-7.43-8.32c-4.7-2.47-10.89.68-13.16,5-2.76,5.29-1.55,12.83,5.8,19.75,3.31,3.12,7.5,5.3,12.45,4,4.71-1.26,5.77-4.35,5.77-4.35l3.41,27.11c1.18,7.78-4.29,10.06-9.38,12-1.31,4.31,4.4,11.35,18.19,13.79s41-10.68,45.69-16.58c-9.39-.33-10.87-3.74-11.61-8.12l-1.16-7.93c9.23-1.14,13.57-3.65,17.62-7.13C283.09,185.33,287.94,168.85,283.79,144.34Z" style="fill:#ffbda7"></path><path d="M276.34,134.08l-9-3.75a4.69,4.69,0,0,1,6.23-2.74A5.13,5.13,0,0,1,276.34,134.08Z" style="fill:#263238"></path><path d="M267.41,140.35a4,4,0,0,1,2.54-1.93,5.54,5.54,0,0,1,5.23,1.59c.53.54,1.17,1.46,2,1.42-.32.67-1.53.93-2.18,1s-1.25,0-1.87,0a11.74,11.74,0,0,0-4.26,1.19,1.72,1.72,0,0,1-1.43.22,1.37,1.37,0,0,1-.6-1.23A4.16,4.16,0,0,1,267.41,140.35Z" style="fill:#BA68C8"></path><path d="M267.62,144.69c.94,1.61,3.36,2.21,5.4,1.34s3-2.89,2-4.51-3.36-2.21-5.4-1.34S266.68,143.07,267.62,144.69Z" style="fill:#263238"></path><path d="M271.06,139.82c2.54-.34,4.58,2.83,6.8,1.08-.11,1.9-2.66,3.43-4.6,2.8C272,143.29,271.06,139.82,271.06,139.82Z" style="fill:#263238"></path><path d="M242.62,134.35l-9.34,4.7a5,5,0,0,1,2.13-7A5.48,5.48,0,0,1,242.62,134.35Z" style="fill:#263238"></path><polygon points="253.96 140.01 259.59 163.58 271.38 157.96 253.96 140.01" style="fill:#f0997a"></polygon><path d="M245.38,141.27a6.36,6.36,0,0,1-.46-.69,2.64,2.64,0,0,0-.6-.65,4.77,4.77,0,0,0-1.42-.77,5.67,5.67,0,0,0-3.64,0,4.83,4.83,0,0,0-2.66,2.1,3.91,3.91,0,0,0-.54,1.58,2.15,2.15,0,0,0,.46,1.64c.07.08.18.15.26,0a5.46,5.46,0,0,0,.42-1.46,4.71,4.71,0,0,1,.71-1.48,4.07,4.07,0,0,1,2.06-1.39,4.67,4.67,0,0,1,2.62,0,11,11,0,0,1,1.35.51,5,5,0,0,1,1.39.74C245.4,141.49,245.43,141.32,245.38,141.27Z" style="fill:#f0997a"></path><path d="M275,136.76a6.09,6.09,0,0,0-2.82-1.39,5.75,5.75,0,0,0-3.18.24,4.63,4.63,0,0,0-1.3.73,4.45,4.45,0,0,0-1,1.42s0,.17.05.12a11.92,11.92,0,0,1,2.72-1.31,4.91,4.91,0,0,1,4.73,1.2,18.6,18.6,0,0,1,1.48,2c.1.13.37.21.46,0C276.74,138.74,275.8,137.48,275,136.76Z" style="fill:#f0997a"></path><path d="M245.32,143.22a4,4,0,0,0-2.92-1.29,5.56,5.56,0,0,0-4.71,2.77c-.39.65-.8,1.7-1.64,1.86.46.57,1.7.55,2.36.46s1.21-.28,1.83-.39a11.76,11.76,0,0,1,4.42.16,1.68,1.68,0,0,0,1.43-.12,1.4,1.4,0,0,0,.31-1.33A4.18,4.18,0,0,0,245.32,143.22Z" style="fill:#BA68C8"></path><path d="M246.14,147.48c-.54,1.79-2.75,2.94-4.94,2.57s-3.54-2.12-3-3.91,2.75-2.94,4.94-2.57S246.67,145.69,246.14,147.48Z" style="fill:#263238"></path><path d="M241.65,143.55c-2.55.27-3.79,3.82-6.36,2.65.55,1.81,3.4,2.7,5.13,1.64C241.53,147.15,241.65,143.55,241.65,143.55Z" style="fill:#263238"></path><path d="M260.13,197.05a64,64,0,0,1-24.44-3.91c-5.78-2.08-10.93-8.51-13.45-14.49a22.32,22.32,0,0,0,11.06,17.64c10.2,6.12,27.64,6.3,27.64,6.3Z" style="fill:#f0997a"></path><path d="M231.75,151.28c-4.26.69-7.32,3.7-6.83,6.73s4.34,4.92,8.59,4.24,7.32-3.69,6.83-6.72S236,150.6,231.75,151.28Zm52-6.94c-.06-.38-.13-.75-.19-1.12a11.37,11.37,0,0,0-1.16.05c-4.29.43-7.52,3.25-7.22,6.3s4,5.18,8.33,4.75a11.87,11.87,0,0,0,1.47-.25C284.76,151,284.37,147.74,283.79,144.34Z" style="fill:#BA68C8;opacity:0.2"></path><path d="M254.42,169.4c-1.57.12-3,1-4.54,1.3a7.53,7.53,0,0,0,5.07,6.2,7.75,7.75,0,0,0,5,0,5.51,5.51,0,0,0,2.83-1.88,7.16,7.16,0,0,0,.78-1.44,2.83,2.83,0,0,0,.23-.75c.12-1.24-1.29-2.53-2.4-2.84a4.49,4.49,0,0,0-3.35.56.5.5,0,0,1-.24.09.45.45,0,0,1-.3-.19A4.21,4.21,0,0,0,254.42,169.4Z" style="fill:#BA68C8"></path><path d="M263.38,172.21a18.43,18.43,0,0,0-2.18.38c-.7.11-1.42.18-2.13.22a15.25,15.25,0,0,1-4.1-.36,20.67,20.67,0,0,1-6.11-2.9c-.12-.07-.19.08-.14.18,1,2.23,3.85,3.49,6.15,4a15.49,15.49,0,0,0,4.19.33,12.58,12.58,0,0,0,4.58-.94A.48.48,0,0,0,263.38,172.21Z" style="fill:#455a64"></path><path d="M201.94,175.22a3.26,3.26,0,1,0,2.85-3.62A3.25,3.25,0,0,0,201.94,175.22Z" style="fill:#BA68C8"></path></g><path d="M265.5,412.07l1,0a380.77,380.77,0,0,0,42.93-4.32l3.9-.67,4.18-.71c4.35-12.65,4.95-25.69,4.15-36.43A93.17,93.17,0,0,0,317.28,347c-4-10.68-1-21.35-2-43.89,17.8-13.12,18.23-41.86-1.06-58.72s-38.72-27.73-43.58-31c-1.41-1-2.61-1-4.35-2.09s-2.64-3.33-4.2-3.33c.36,1.4,1.74,3.55,3.08,4.12,28,34.14,28.21,61.7,28.21,61.7s-69-43.3-74.93-69.81c-2,9.27-.71,15.5,1.86,37.75,3.08,26.64-4.62,53.17-16.79,68.07,2.91,11.49,7.76,22.82,3.82,32.95-3.42,8.8-10.49,20-13.41,24.47-.47.72-.83,1.27-1.06,1.6l-.14.21a1,1,0,0,0-.1.16h0c24.31-3.25,51.85,16.86,70.17,43Z" style="fill:#37474f"></path><path d="M288.26,306.93c-9.05,6.71-21.1,10.4-32.95,8.38a42.63,42.63,0,0,1-16.23-6.3c-3.93-2.64-6.7-6.25-10.06-9.5-.19-.18-.35.31-.3.44a32.18,32.18,0,0,0,10.94,13.58c4.81,3.46,10.45,5.13,16.33,6a38.59,38.59,0,0,0,17.44-1.37c3-.95,10.81-4.73,15-10.73C288.51,307.29,288.52,306.74,288.26,306.93Z" style="opacity:0.2"></path><g id="freepik--Arm--inject-79"><path d="M322.66,181.09s-1.12-.51-1.52-2.87-.23-4-.63-6.65-1.66-7-4.11-7.39-3.49,5.23-3.43,9.76.09,7.18-2.76,12.38-5.18,11.82-1.9,17.44Z" style="fill:#f0997a"></path><path d="M338.62,171.64c-1.47-4.37-1.5-9.94-2.07-13.43a38.27,38.27,0,0,0-3.33-9.9c-1.56-3.44-2.83-8-4.09-8.39s-3.34,1.06-3.15,3.83c0,0-1.71-2-3.18-4.05s-2.52-4.68-4.51-5.07-2.83,2.79-2.06,5,1.37,3.4,1.37,3.4-1.91,1-.07,4.84a20.17,20.17,0,0,0,2.88,4.32c.76,3,.94,4.49,2.5,6.93.95,2.83,1.51,5.23,2.89,7.52-.62,2.11-2.21,4.64-2.05,8.25s.77,4.43-3.22,8.91c-2.68,3-7.33,6.53-9.81,10.65s-4.11,8.42-.52,13.5,6.39,8.73,9.79,14.08c2.57,4.05,6.61,10.56,17.38,29.79,8.37,14.93,10.49,19.18,16.43,26.42s12.81,13.09,26.52,17.93,27.11,2.61,26.6-8.83c-.59-13.34-3.12-19.87-9.48-26.85S389,250.32,381,244c-7-5.61-21-17.89-29.52-26.23-9.64-9.45-14.35-15.89-14.46-18.84a46.33,46.33,0,0,1,1.68-13.16C340.19,180,340.64,178.26,338.62,171.64Z" style="fill:#ffbda7"></path><path d="M310.2,207.9c8.91,14.32,18.3,28.61,27.15,42.88l-.8.47c-8.14-14.61-16.59-29.8-26.35-43.35Zm0,0c10.37,13.12,18.93,28.34,27.16,42.9l-.79.47c-8.79-14.13-17.71-29.36-26.37-43.37Z" style="fill:#b16668"></path><path d="M353.8,278.19c-5.66-9.08-11.65-17.91-17.23-26.92l.79-.47C342,259,348,270.91,353.8,278.19Zm0,0c-7.08-7.85-12-17.83-17.25-26.94l.8-.47c5.51,8.87,11.06,18.63,16.45,27.41Z" style="fill:#b16668"></path><path d="M308.31,203.76c.74,2.7,2.74,4.69,4.25,7s3.13,4.55,4.63,6.87,3,4.63,4.45,7,2.9,4.7,4.28,7.09c-1.61-2.25-3.17-4.53-4.71-6.81s-3.06-4.6-4.6-6.89l-4.56-6.9-2.29-3.46A9.87,9.87,0,0,1,308.31,203.76Z" style="fill:#b16668"></path><path d="M326,143.75a22.29,22.29,0,0,0,1.18,3.57c.47,1.14,1,2.28,1.56,3.35l.09.16,0,.25a14.31,14.31,0,0,0-.06,2,13.3,13.3,0,0,0,.22,2,12.59,12.59,0,0,0,1.32,3.78l.16.29-.11.25a10.43,10.43,0,0,0-.5,1.46,13.31,13.31,0,0,0-.32,1.55,11.9,11.9,0,0,0-.17,1.59c0,.54,0,1.08,0,1.64a9.57,9.57,0,0,1-.64-3.28,10.43,10.43,0,0,1,.47-3.41l.05.55a11.12,11.12,0,0,1-1.68-4.15,12.06,12.06,0,0,1-.23-2.23,10.27,10.27,0,0,1,.2-2.26l.05.4a21,21,0,0,1-1.23-3.66A12.69,12.69,0,0,1,326,143.75Z" style="fill:#f0997a"></path><path d="M317.6,143a10.38,10.38,0,0,0,1.4,1.62,14.07,14.07,0,0,0,1.63,1.3l.11.08.06.2a16.64,16.64,0,0,0,1.86,4,11.69,11.69,0,0,0,2.92,3.22l.36.27-.08.45a12.79,12.79,0,0,0-.18,2.44,19.77,19.77,0,0,0,.21,2.54,25.24,25.24,0,0,0,.52,2.53c.2.85.51,1.67.78,2.52a15.22,15.22,0,0,1-1.36-2.31,14,14,0,0,1-.95-2.53,15,15,0,0,1-.48-2.68,10.68,10.68,0,0,1,.09-2.81l.28.72a10.45,10.45,0,0,1-1.85-1.66,12.17,12.17,0,0,1-1.42-2,15.12,15.12,0,0,1-1-2.21,13.93,13.93,0,0,1-.59-2.35l.18.27a9.07,9.07,0,0,1-1.48-1.69A7.23,7.23,0,0,1,317.6,143Z" style="fill:#f0997a"></path><path d="M327,171.39a10.56,10.56,0,0,1-1,4.68,15,15,0,0,1-2.71,4c.31-.74.69-1.44,1-2.15s.7-1.4,1-2.11A34.84,34.84,0,0,0,327,171.39Z" style="fill:#f0997a"></path><path d="M314,190a19.92,19.92,0,0,0-.7,8.48,16,16,0,0,0,1.2,4,33.68,33.68,0,0,0,2.11,3.82,11.77,11.77,0,0,1-3.1-3.3,11.38,11.38,0,0,1-1.62-4.31A11.67,11.67,0,0,1,314,190Z" style="fill:#f0997a"></path></g><g id="freepik--arm--inject-79"><path d="M32,379.31c-.13.59.09.86-.08,1a41.52,41.52,0,0,0-3.45,3.5,7.5,7.5,0,0,0-2,3.57,5.64,5.64,0,0,0,.43,3.45A26.37,26.37,0,0,0,23,395.13a3.83,3.83,0,0,0-.87,2.11,3.22,3.22,0,0,0,2.06,2.81,9.51,9.51,0,0,0,6.83-.28c3.62-1.82,5.19-3.46,8.37-6.07a104.3,104.3,0,0,1,15.95-10.82s-3.67,3.53-5,4.79c-4.58,4.21-7.14,8.4-10.74,13.48a6.62,6.62,0,0,0-1.26,2.46,2.41,2.41,0,0,0,.88,2.47,6.47,6.47,0,0,0,4.27.24c5-2.52,9.17-7.1,13.42-10.73a88.07,88.07,0,0,1,14-10.08c1.38-.77,5.11-2.92,4.71-.07-.18,1.31-1.46,2.68-2.15,3.78a36,36,0,0,0-3.06,5.58,13.87,13.87,0,0,0-1,7.29c.19,1.24.79,2.61,2,2.92s2.25-.5,3.15-1.26c2.95-2.46,5.8-5.05,8.54-7.74A54.23,54.23,0,0,0,90.4,388c2-2.94,3.18-6.33,4.91-9.42a17.52,17.52,0,0,1,6.62-6.59,37,37,0,0,1,8.28-3.38c4.51-1.33,9.08-2.47,13.66-3.58,8.67-2.1,35.41-7.25,40.66-8.47,13.42-3.13,16-4.67,21.71-15.92s21.84-67.44,21.84-67.44l-12.75-52.37c-25.47,7.72-22.27,13.27-30.27,42.1-7.5,27.05-16,55.32-16,55.32s-52.32,20.9-62,25.06c-10.58,4.52-21.06,9.19-31.3,14.43-6,3.06-11.7,8.27-17,12.55-2.83,2.28-5.64,5-6.53,8.51C32.09,378.93,32.05,379.12,32,379.31Z" style="fill:#ffbda7"></path><path d="M53.87,372.25a17.86,17.86,0,0,0-2.91.92,27.12,27.12,0,0,0-3.08,1.35,58.57,58.57,0,0,0-5.68,3.33A92.54,92.54,0,0,0,32,385.5c-1,.86-2,1.74-2.93,2.65a15.75,15.75,0,0,0-2.29,2.54c-.06.11,0,.35.18.27a41.68,41.68,0,0,0,4.94-4c1.64-1.34,3.31-2.66,5-3.94,3.36-2.54,6.85-4.95,10.45-7.15q1.65-1,3.36-1.89c.52-.27,1-.56,1.56-.79s1.13-.41,1.66-.69C54.07,372.47,54,372.23,53.87,372.25Z" style="fill:#f0997a"></path><path d="M51.84,368a13,13,0,0,0-2.12.55,20.52,20.52,0,0,0-2.26.85,41.85,41.85,0,0,0-4.2,2.19,68.66,68.66,0,0,0-7.57,5.1c-.74.59-1.47,1.18-2.19,1.8a11,11,0,0,0-1.74,1.74c-.05.07,0,.25.12.2a30.87,30.87,0,0,0,3.69-2.67c1.23-.9,2.47-1.79,3.73-2.64,2.51-1.7,5.1-3.3,7.76-4.74.81-.44,1.64-.84,2.48-1.23a11.82,11.82,0,0,1,1.15-.51c.4-.15.82-.26,1.21-.44C52,368.12,51.92,368,51.84,368Z" style="fill:#f0997a"></path></g></g><g id="freepik--Drops--inject-79"><path d="M175.93,245.06a3,3,0,0,0-1.06,2.18,11.78,11.78,0,0,0,.25,2.84c.17,1.11.36,2.48-.35,3.45s-2.16.29-2.73-.63c-1.24-2,.45-4.07,1.34-5.78a23.79,23.79,0,0,0,2.06-6c0-.11-.1-.27-.15-.11a25.15,25.15,0,0,1-2.59,5.86c-.87,1.47-2,3-1.75,4.84a3.56,3.56,0,0,0,2.82,3c1.75.22,2.17-1.93,2.07-3.23-.07-1-.39-2-.52-3a4.53,4.53,0,0,1,.65-3.3S176,245,175.93,245.06Z" style="fill:#fafafa"></path><path d="M179.92,249.63a.45.45,0,0,0-.21-.24.12.12,0,0,0-.17.12.3.3,0,0,0,.05.16c-.05-.07,0-.1,0,0a0,0,0,0,1,0,0s0,0,0,.07,0,0,0,0a.59.59,0,0,0,0,.08l0,0v0h0l-.09.05a.52.52,0,0,1-.18,0,1.09,1.09,0,0,1-.71-.29.86.86,0,0,1-.13-.14s0,0,0,0l0-.05,0,0s0,0,0,0a.49.49,0,0,1,0-.11s0,0,0-.05,0,0,0,0,0,0,0,0a.28.28,0,0,1,0-.09l0-.06a1,1,0,0,1,0-.1l.1-.14a.53.53,0,0,1,.12-.1l.09,0s0-.06.09-.08.05-.14,0-.2a.2.2,0,0,0-.14-.14.32.32,0,0,0-.17,0l-.11,0-.18.11a.79.79,0,0,0-.23.31,1,1,0,0,0,0,.82,1.59,1.59,0,0,0,1.5,1A.63.63,0,0,0,180,250,.8.8,0,0,0,179.92,249.63Z" style="fill:#fafafa"></path><path d="M194.4,292.14c0,2.06.17,4.13.15,6.2,0,1-.46,2.15-1.69,2.09s-1.36-1.53-1.14-2.52a5.17,5.17,0,0,0,.13-2.59,3.24,3.24,0,0,0-1.09-1.73s-.06.08,0,.11c.87,1,.62,2.44.32,3.64a3.38,3.38,0,0,0,.07,2.63,2.25,2.25,0,0,0,3.9,0,6.08,6.08,0,0,0,.26-2.94c-.05-1.49-.27-3-.41-4.46a26.33,26.33,0,0,1,0-4.35C194.26,289.23,194.42,291,194.4,292.14Z" style="fill:#fafafa"></path><path d="M224.62,198.54a9.11,9.11,0,0,0-.66-3.47c-.08-.15-.37-.24-.39,0a19.36,19.36,0,0,0,.37,2.8,4.79,4.79,0,0,1-.36,2.8,1.21,1.21,0,0,1-1.3.63,1,1,0,0,1-.59-.79,4.85,4.85,0,0,1,.12-2.36,20.36,20.36,0,0,0,.78-5,24.28,24.28,0,0,0-1-5.85c-.05-.15-.2-.07-.18.07a27.57,27.57,0,0,1,.58,7,24.57,24.57,0,0,1-.71,3.28,6.09,6.09,0,0,0-.21,2.81c.34,1.44,2,2.25,3,.87A4.29,4.29,0,0,0,224.62,198.54Z" style="fill:#fafafa"></path><path d="M226.78,194.23c-.05-.09-.15-.2-.27-.15s-.09.22,0,.31a2.16,2.16,0,0,1,.44,1.44.86.86,0,0,1-.81.73c-.17,0-.22.18-.19.31a.42.42,0,0,0,.37.29,1.16,1.16,0,0,0,1.07-1A3,3,0,0,0,226.78,194.23Z" style="fill:#fafafa"></path><path d="M286.93,142.3a9.13,9.13,0,0,0-1.05-1.64c-.31-.44-.62-.87-.9-1.32a10,10,0,0,1-1.35-3.23c0-.1-.12-.07-.12,0,0,1.59,1,3.1,1.83,4.39.22.34.44.67.65,1a2.82,2.82,0,0,1,.56,1.32,1,1,0,0,1-.47.95c-.36.17-.63-.1-.85-.37,0,0-.12-.09-.17,0-.34.31,0,.72.27.92a1.17,1.17,0,0,0,1.07.14C287.23,144.1,287.22,143,286.93,142.3Z" style="fill:#fafafa"></path><path d="M260.49,176c.11-.09.16-.17.09-.25a.2.2,0,0,0-.2,0,12.49,12.49,0,0,1-3.17.18,11,11,0,0,1-3.15-.66l-.73-.25a.88.88,0,0,0,.44.41c1.68,1,3.89,1.65,5.8,1A4.28,4.28,0,0,0,260.49,176Z" style="fill:#fafafa"></path><path d="M261.65,175.32a.28.28,0,0,0-.49,0c-.23.34.36.56.48.19A.25.25,0,0,0,261.65,175.32Z" style="fill:#fafafa"></path><path d="M228.71,131c-.17-1-.39-2-.58-3.06a21.38,21.38,0,0,1-.41-3.1,22.57,22.57,0,0,1,.26-3.07c0-.08-.1-.35-.2-.19-.8,1.22-.65,3.1-.51,4.46.18,1.75.67,3.45.84,5.2.08.78-.05,1.76-1,2a1.53,1.53,0,0,1-1.8-1.32,10.19,10.19,0,0,1,.24-3.06,6.75,6.75,0,0,0-.5-2.83c0-.13-.15,0-.13.11a8.71,8.71,0,0,1-.32,3.89,3.8,3.8,0,0,0,.16,2.49c.61,1.3,2.67,2.2,3.64.75A3.24,3.24,0,0,0,228.71,131Z" style="fill:#fafafa"></path><path d="M282.86,244.69c-.55-.75-1.24-1.4-1.83-2.12a24.13,24.13,0,0,1-1.71-2.34,28.82,28.82,0,0,1-2.87-5.91c-.05-.15-.18,0-.15.07a22.39,22.39,0,0,0,2.36,5.78,23.94,23.94,0,0,0,1.77,2.61,22.57,22.57,0,0,1,2,2.49c.52.95.37,2.32-.92,2.45a3.06,3.06,0,0,1-2.58-.85c-.7-.77-.67-1.94-1-2.87a2.81,2.81,0,0,0-1.47-1.66c-.27-.12-.28.3-.1.42a3,3,0,0,1,1,2.14,4.68,4.68,0,0,0,.91,2.4,4.16,4.16,0,0,0,4.18,1.11C284.05,247.84,283.68,245.82,282.86,244.69Z" style="fill:#fafafa"></path><path d="M279.08,251.64a4.42,4.42,0,0,0-.61-1.08l-.42-.52a3.44,3.44,0,0,0-.46-.55c-.1-.08-.21,0-.2.13a2.34,2.34,0,0,0,.49,1.06,7.23,7.23,0,0,1,.45.76,1.77,1.77,0,0,1,.12,1.49,1,1,0,0,1-1,.55.84.84,0,0,1-.8-.69,2.57,2.57,0,0,1-.07-.87,2.37,2.37,0,0,0,0-.88c0-.1-.18-.31-.31-.18a1.08,1.08,0,0,0-.21.49,2.25,2.25,0,0,0-.08.52,2.87,2.87,0,0,0,.09,1,1.72,1.72,0,0,0,1.37,1.25,1.62,1.62,0,0,0,1.51-.56A2.06,2.06,0,0,0,279.08,251.64Z" style="fill:#fafafa"></path><path d="M360.24,226.38c-4-.9-7.34-3.48-10.43-6.11-.1-.09-.15.17-.08.23,2.45,2.22,4.88,4.48,7.94,5.82a14,14,0,0,0,2.34.78,5.49,5.49,0,0,1,2.33.87,1.46,1.46,0,0,1,.32,2.09c-.73.87-1.94.66-2.92.48-.46-.09-.47.48-.11.64,1.51.68,4.24.41,4.32-1.75C364,227.45,361.77,226.72,360.24,226.38Z" style="fill:#fafafa"></path></g></g></g><g id="freepik--Rouge--inject-79"><g id="freepik--Blush--inject-79"><path d="M114.88,113.8c-5.21,3-7.82,7-7.82,10.91s2.61,7.9,7.82,10.92c10.44,6,27.37,6,37.81,0,5.22-3,7.82-7,7.82-10.91s-2.6-7.9-7.82-10.92C142.25,107.77,125.32,107.77,114.88,113.8Z" style="fill:#e0e0e0"></path><path d="M151.11,102.94c-9.56-5.52-25.08-5.52-34.65,0-4.79,2.76-7.18,6.38-7.18,10v8.82c0,3.62,2.39,7.24,7.18,10,9.57,5.53,25.09,5.53,34.65,0,4.79-2.76,7.18-6.38,7.18-10V113C158.29,109.33,155.9,105.7,151.11,102.94Z" style="fill:#37474f"></path><path d="M116.46,102.94c-4.79,2.76-7.18,6.38-7.18,10s2.39,7.25,7.18,10c9.57,5.52,25.08,5.52,34.65,0,4.79-2.76,7.18-6.38,7.18-10s-2.39-7.25-7.18-10C141.54,97.42,126,97.42,116.46,102.94Z" style="fill:#455a64"></path><path d="M132.91,74.12c0,11-7.76,24.48-17.33,30-4.78,2.76-9.11,3-12.25,1.21s-3.59-2-3.59-2c-3.13-1.81-5.07-5.69-5.07-11.22,0-11,7.76-24.48,17.33-30,4.78-2.76,9.11-3,12.25-1.21,0,0,.45.17,3.58,2S132.91,68.6,132.91,74.12Z" style="fill:#37474f"></path><path d="M115.58,104.13c-4.78,2.76-9.11,3-12.25,1.21s-5.08-5.69-5.08-11.21c0-11,7.76-24.49,17.33-30,4.78-2.77,9.12-3,12.25-1.22s5.08,5.7,5.08,11.22C132.91,85.17,125.15,98.61,115.58,104.13Z" style="fill:#263238"></path><path d="M115.58,100.71c-4,2.29-7.56,2.51-10.16,1s-4.2-4.72-4.2-9.3c0-9.16,6.43-20.3,14.36-24.88,4-2.29,7.56-2.51,10.16-1s4.2,4.72,4.21,9.3C130,85,123.52,96.13,115.58,100.71Z" style="fill:#fafafa"></path><path d="M121.74,106c-3.32,1.92-5,4.44-5,7s1.66,5,5,7c6.66,3.84,17.44,3.84,24.09,0,3.32-1.92,5-4.44,5-7s-1.66-5-5-7C139.18,102.15,128.4,102.15,121.74,106Z" style="fill:#263238"></path><path d="M145.83,108.16c-6.65-3.84-17.43-3.84-24.09,0-2.84,1.65-4.39,3.73-4.8,5.87.41,2.14,2,4.22,4.8,5.87,6.66,3.84,17.44,3.84,24.09,0,2.84-1.64,4.39-3.73,4.8-5.87C150.22,111.89,148.67,109.81,145.83,108.16Z" style="fill:#BA68C8"></path><path d="M145.83,108.16c-6.65-3.84-17.43-3.84-24.09,0-2.84,1.65-4.39,3.73-4.8,5.87.41,2.14,2,4.22,4.8,5.87,6.66,3.84,17.44,3.84,24.09,0,2.84-1.64,4.39-3.73,4.8-5.87C150.22,111.89,148.67,109.81,145.83,108.16Z" style="fill:#fff;opacity:0.30000000000000004"></path><path d="M104.28,80.53A31.27,31.27,0,0,0,102,86.64l16.51,12a29.18,29.18,0,0,0,4.37-4.56Z" style="fill:#BA68C8;opacity:0.1"></path><path d="M101.4,90.17a21.53,21.53,0,0,0-.18,2.25c0,.25,0,.46.06.71l12,8.69a17.46,17.46,0,0,0,2.33-1.11c.06,0,.12-.09.17-.12Z" style="fill:#BA68C8;opacity:0.1"></path><path d="M115.44,67.63a24.46,24.46,0,0,0-5,4.07l17.8,12.93a27.26,27.26,0,0,0,1.57-6.6Z" style="fill:#BA68C8;opacity:0.1"></path><path d="M107.66,74.87c-.49.66-.92,1.36-1.37,2.06l19,13.78c.44-.71.83-1.43,1.21-2.17Z" style="fill:#BA68C8;opacity:0.1"></path><path d="M121.68,65.6a11.2,11.2,0,0,0-3.31.65l11.46,8.32a13.87,13.87,0,0,0-.7-3.56Z" style="fill:#BA68C8;opacity:0.1"></path></g></g><g id="freepik--brushes-2--inject-79"><g id="freepik--Brush--inject-79"><path id="freepik--Shadow--inject-79" d="M356.28,425.11c-1.35-.91-5.74,0-8.82,1.54h0l-8.13,2.87h0l-76.23,28.81h0a1,1,0,0,0-.52.64,2.85,2.85,0,0,0,.53,2.56.83.83,0,0,0,1,.33h0l76.45-27.2h0l8.09-2.38h0c3.45-.65,7.17-2.41,8.19-3.38A2.53,2.53,0,0,0,356.28,425.11Z" style="fill:#e0e0e0"></path><g id="freepik--brush--inject-79"><path d="M347.5,430.29c3.39-.63,7-2.37,8-3.32a2.47,2.47,0,0,0-.52-3.73c-1.33-.89-5.64,0-8.66,1.51Z" style="fill:#455a64"></path><path d="M348.46,429.23a4.23,4.23,0,0,0-.77-3.89,1.46,1.46,0,0,0-1.32-.59h0l-8,2.82,1.19,5.07,7.95-2.34h0A1.43,1.43,0,0,0,348.46,429.23Z" style="fill:#BA68C8"></path><path d="M339.55,432.64l7.95-2.34h0a1.43,1.43,0,0,0,1-1.06,4,4,0,0,0,.12-1.83l-9.46,3.39Z" style="opacity:0.2"></path><path d="M340.38,431.7a4.06,4.06,0,0,0-.74-3.62,1.23,1.23,0,0,0-1.27-.49v0l-74.85,28.29,1,3.49,75.07-26.71h0A1.31,1.31,0,0,0,340.38,431.7Z" style="fill:#37474f"></path><path d="M264.48,459.35l75.07-26.71h0a1.31,1.31,0,0,0,.83-.93,3.59,3.59,0,0,0,.11-1.4L264,457.69Z" style="fill:#263238"></path><path d="M265,458.72a2.82,2.82,0,0,0-.52-2.52.79.79,0,0,0-1.46.3,2.86,2.86,0,0,0,.53,2.52A.78.78,0,0,0,265,458.72Z" style="fill:#455a64"></path></g></g><g id="freepik--brush--inject-79"><path id="freepik--shadow--inject-79" d="M294.12,461.8c.49-1.55,4.49-3.57,7.85-4.29h0l8.15-2.83v0h0v0l77.56-25h0a1,1,0,0,1,.81.18,2.88,2.88,0,0,1,1.18,2.34.83.83,0,0,1-.56.86h0L312.4,459.48v0h0v0l-7.81,3.17h0c-3.1,1.65-7.11,2.58-8.51,2.46A2.53,2.53,0,0,1,294.12,461.8Z" style="fill:#e0e0e0"></path><g id="freepik--brush--inject-79"><path d="M387.79,430.5a2.81,2.81,0,0,0-1.16-2.29,1,1,0,0,0-.8-.18h0l-77.1,24.58.29.15c-.38.15,0,.37,0,1a4.08,4.08,0,0,0,1.67,3.29c.47.3.38.83.72.69v0l75.86-26.4h0A.83.83,0,0,0,387.79,430.5Z" style="fill:#37474f"></path><path d="M387.79,430.5a2.61,2.61,0,0,0-.28-1.22L309.7,456a3.38,3.38,0,0,0,.95,1h0c.41.27.4.7.61.71a.23.23,0,0,0,.11,0h0l75.86-26.4A.83.83,0,0,0,387.79,430.5Z" style="fill:#263238"></path></g><path d="M303.16,460.61c-3.05,1.62-5.93,2.31-7.31,2.2a2.48,2.48,0,0,1-1.91-3.25c.48-1.52,3.63-3.07,6.92-3.77C303,454.91,306.18,459.56,303.16,460.61Z" style="fill:#455a64"></path><path d="M300.86,455.79l7.86-3.19h0a1.46,1.46,0,0,1,1.45.22,5,5,0,0,1,.7.61,4.28,4.28,0,0,1,.29.38c.1.13.18.27.27.41a4.17,4.17,0,0,1,.61,2.21,1.5,1.5,0,0,1-.69,1.33h0l-8.19,2.84h0a1.28,1.28,0,0,0,.7-1.2,4.23,4.23,0,0,0-.71-2.34,3.59,3.59,0,0,0-1-1,1.41,1.41,0,0,0-1.26-.22Z" style="fill:#BA68C8"></path><path d="M300.86,455.79l7.86-3.19h0a1.46,1.46,0,0,1,1.45.22,5,5,0,0,1,.7.61,4.28,4.28,0,0,1,.29.38c.1.13.18.27.27.41l-8.3,2.83a3.59,3.59,0,0,0-1-1,1.41,1.41,0,0,0-1.26-.22Z" style="opacity:0.2"></path></g></g><g id="freepik--brush-1--inject-79"><g id="freepik--brush--inject-79"><path id="freepik--shadow--inject-79" d="M235.17,452c-.61-3.66-2.47-5.83-4.86-6.38l0-.06s-3-1.26-11.14-1.35-12.68,3.2-12.68,3.2h0l-75.1-30.68c-3.11-1.16-6.16,3.08-7.15,7.24h0a9.78,9.78,0,0,0-.17,4.1,1.74,1.74,0,0,0,.05.22,4.13,4.13,0,0,0,.63,1.43c0,.07.11.12.17.19a3.15,3.15,0,0,0,1.23.91l76.91,25.82h0s1.27,5.45,7.51,10.71,9.31,6.25,9.31,6.25l0-.06c2.17,1.14,5,.71,7.84-1.66C233,467.58,236.3,458.68,235.17,452Z" style="fill:#e0e0e0"></path><g id="freepik--brush--inject-79"><path d="M210.69,443.83c-2.14-.79-5.55,8.4-3.42,9.19l-77.43-26c-5.37-2-.13-16.08,5.23-14.08Z" style="fill:#37474f"></path><path d="M181.44,444.35,207.27,453c-2.13-.79,1.28-10,3.42-9.19l-25.22-10.3C181.44,432,177.41,442.85,181.44,444.35Z" style="fill:#BA68C8"></path><path d="M127.93,420.18c-.72,3-.35,6,1.91,6.84l77.43,26c-1-.36-.79-2.47-.1-4.59Z" style="opacity:0.1"></path><path d="M222.85,440.42c-8.15-.1-12.67,3.2-12.67,3.2a11,11,0,0,0-3.43,9.23s1.26,5.45,7.5,10.71,9.32,6.25,9.32,6.25l5.21-14,5.21-14S231,440.51,222.85,440.42Z" style="fill:#37474f"></path><path d="M225.79,463.83c-11-1.35-19.16-11.89-18.84-14.5h0a7,7,0,0,0-.16,3.51s1.26,5.45,7.5,10.71,9.32,6.25,9.32,6.25Z" style="opacity:0.1"></path><path d="M219.93,463.82c-1.14-6.68,2.17-15.58,7.4-19.89s10.37-2.39,11.5,4.28-2.18,15.57-7.39,19.88S221.08,470.49,219.93,463.82Z" style="fill:#263238"></path></g></g></g><g id="freepik--eye-shadows--inject-79"><g id="freepik--eye-shadow--inject-79"><path d="M408.89,422q-10.65-3.24-16.25-9.38h0q5.61-6.15,16.25-9.38h0q10.64,3.24,16.24,9.38h0q-5.61,6.13-16.24,9.38Z" style="fill:#e0e0e0"></path><path d="M422.74,406.9q-4.78-5.23-13.85-8-9.08,2.76-13.86,8v5.6q4.79,5.24,13.86,8,9.06-2.76,13.85-8Z" style="fill:#37474f"></path><path d="M408.89,414.9q-9.08-2.77-13.86-8h0q4.79-5.25,13.86-8h0q9.06,2.76,13.85,8h0q-4.78,5.24-13.85,8Z" style="fill:#455a64"></path><path d="M408.89,414.9v5.6q-9.08-2.76-13.86-8v-5.6Q399.82,412.14,408.89,414.9Z" style="fill:#263238"></path><path d="M422.74,410.62v-1.84c-3.35-3.27-7.95-5.81-13.85-7.61h0q-8.85,2.7-13.86,7.61v1.84q5,4.9,13.86,7.61h0Q417.73,415.53,422.74,410.62Z" style="opacity:0.25"></path><path d="M423.66,405.15q-5.1-5.58-14.77-8.53-9.67,3-14.77,8.53v3.41q5.11,5.58,14.78,8.53,9.66-2.94,14.77-8.53Z" style="fill:#37474f"></path><path d="M408.89,413.68q-9.67-3-14.78-8.53h0q5.11-5.58,14.78-8.53h0q9.66,3,14.77,8.53h0q-5.12,5.58-14.77,8.53Z" style="fill:#455a64"></path><path d="M408.89,410.33a26.61,26.61,0,0,1-9.69-5.18,26.46,26.46,0,0,1,9.69-5.18,26.41,26.41,0,0,1,9.68,5.18A26.65,26.65,0,0,1,408.89,410.33Z" style="fill:#263238"></path><path d="M399.94,405.77a27.63,27.63,0,0,0,8.95,4.56,27.67,27.67,0,0,0,8.94-4.56,27.49,27.49,0,0,0-8.94-4.57A27.44,27.44,0,0,0,399.94,405.77Z" style="fill:#BA68C8"></path><path d="M408.89,413.68v3.41q-9.67-2.94-14.77-8.53v-3.41Q399.22,410.73,408.89,413.68Z" style="fill:#263238"></path></g><g id="freepik--eye-shadow--inject-79"><path d="M439,448.48q-10.64-3.24-16.25-9.38h0q5.61-6.14,16.25-9.38h0q10.63,3.24,16.25,9.38h0q-5.61,6.15-16.25,9.38Z" style="fill:#e0e0e0"></path><path d="M452.85,433.4q-4.78-5.23-13.86-8-9.08,2.76-13.86,8V439q4.78,5.24,13.86,8,9.08-2.76,13.86-8Z" style="fill:#37474f"></path><path d="M439,441.4q-9.08-2.76-13.86-8h0q4.8-5.23,13.86-8h0q9.08,2.76,13.86,8h0q-4.78,5.24-13.86,8Z" style="fill:#455a64"></path><path d="M439,441.41V447q-9.06-2.77-13.86-8v-5.6Q429.93,438.65,439,441.41Z" style="fill:#263238"></path><path d="M452.85,437.12v-1.84q-5-4.9-13.86-7.6h0q-8.85,2.69-13.86,7.6v1.84q5,4.9,13.86,7.61h0Q447.84,442,452.85,437.12Z" style="opacity:0.25"></path><path d="M453.76,431.66q-5.1-5.6-14.77-8.53-9.66,2.94-14.77,8.53v3.41q5.1,5.58,14.77,8.52,9.67-2.94,14.77-8.52Z" style="fill:#37474f"></path><path d="M439,440.18q-9.67-2.94-14.77-8.52h0q5.1-5.6,14.77-8.53h0q9.67,2.94,14.77,8.53h0q-5.1,5.58-14.77,8.52Z" style="fill:#455a64"></path><path d="M439,436.83a26.55,26.55,0,0,1-9.68-5.17,26.41,26.41,0,0,1,9.68-5.18,26.33,26.33,0,0,1,9.68,5.18A26.55,26.55,0,0,1,439,436.83Z" style="fill:#263238"></path><path d="M430.05,432.27a27.28,27.28,0,0,0,8.94,4.56,27.28,27.28,0,0,0,8.94-4.56,27.47,27.47,0,0,0-8.94-4.56A27.47,27.47,0,0,0,430.05,432.27Z" style="fill:#BA68C8"></path><path d="M430.05,432.27a27.28,27.28,0,0,0,8.94,4.56,27.28,27.28,0,0,0,8.94-4.56,27.47,27.47,0,0,0-8.94-4.56A27.47,27.47,0,0,0,430.05,432.27Z" style="fill:#fff;opacity:0.5"></path><path d="M439,440.19v3.41q-9.66-3-14.77-8.53v-3.42Q429.32,437.25,439,440.19Z" style="fill:#263238"></path></g><g id="freepik--eye-shadow--inject-79"><path d="M456.68,418.23Q446,415,440.43,408.85h0q5.61-6.15,16.25-9.38h0q10.63,3.24,16.25,9.38h0q-5.62,6.13-16.25,9.38Z" style="fill:#e0e0e0"></path><path d="M470.54,403.15q-4.79-5.23-13.86-8-9.07,2.76-13.86,8v5.6q4.79,5.24,13.86,8,9.07-2.76,13.86-8Z" style="fill:#37474f"></path><path d="M456.68,411.15q-9.07-2.76-13.86-8h0q4.79-5.23,13.86-8h0q9.07,2.76,13.86,8h0q-4.8,5.24-13.86,8Z" style="fill:#455a64"></path><path d="M456.68,411.15v5.6q-9.07-2.76-13.86-8v-5.6Q447.62,408.39,456.68,411.15Z" style="fill:#263238"></path><path d="M470.54,406.87V405q-5-4.9-13.86-7.61h0q-8.85,2.7-13.86,7.61v1.84q5,4.9,13.86,7.61h0Q465.53,411.78,470.54,406.87Z" style="opacity:0.25"></path><path d="M471.45,401.4q-5.1-5.58-14.77-8.53-9.68,3-14.77,8.53v3.41q5.1,5.58,14.77,8.53,9.66-2.94,14.77-8.53Z" style="fill:#37474f"></path><path d="M456.68,409.93Q447,407,441.91,401.4h0q5.1-5.58,14.77-8.53h0q9.68,3,14.77,8.53h0q-5.1,5.58-14.77,8.53Z" style="fill:#455a64"></path><path d="M456.68,406.58A26.33,26.33,0,0,1,447,401.4a26.48,26.48,0,0,1,9.68-5.18,26.56,26.56,0,0,1,9.68,5.18A26.41,26.41,0,0,1,456.68,406.58Z" style="fill:#263238"></path><path d="M447.74,402a27.47,27.47,0,0,0,8.94,4.56,27.47,27.47,0,0,0,8.94-4.56,27.28,27.28,0,0,0-8.94-4.57A27.28,27.28,0,0,0,447.74,402Z" style="fill:#BA68C8"></path><path d="M447.74,402a27.47,27.47,0,0,0,8.94,4.56,27.47,27.47,0,0,0,8.94-4.56,27.28,27.28,0,0,0-8.94-4.57A27.28,27.28,0,0,0,447.74,402Z" style="opacity:0.25"></path><path d="M456.68,409.93v3.41q-9.66-2.94-14.77-8.53V401.4Q447,407,456.68,409.93Z" style="fill:#263238"></path></g></g><g id="freepik--Lipsticks--inject-79"><g id="freepik--Lip--inject-79"><path id="freepik--shadow--inject-79" d="M101.67,458.1c1.76,1,2.65,2.35,2.65,3.69s-.89,2.66-2.65,3.68a14.07,14.07,0,0,1-12.76,0c-1.77-1-2.65-2.35-2.65-3.68s.88-2.67,2.65-3.69A14.13,14.13,0,0,1,101.67,458.1Z" style="fill:#e0e0e0"></path><g id="freepik--lip--inject-79"><path d="M90,431a11.63,11.63,0,0,1,10.56,0,3.7,3.7,0,0,1,2.19,3v26.77a3.73,3.73,0,0,1-2.19,3,11.69,11.69,0,0,1-10.56,0,3.73,3.73,0,0,1-2.19-3V434A3.7,3.7,0,0,1,90,431Z" style="fill:#37474f"></path><path d="M100.57,431a3.22,3.22,0,0,1,0,6.1,11.69,11.69,0,0,1-10.56,0,3.22,3.22,0,0,1,0-6.1A11.63,11.63,0,0,1,100.57,431Z" style="fill:#455a64"></path><path d="M90,445.44a11.63,11.63,0,0,0,10.56,0,3.71,3.71,0,0,0,2.19-3.05v2.39a3.71,3.71,0,0,1-2.19,3.05,11.69,11.69,0,0,1-10.56,0,3.71,3.71,0,0,1-2.19-3.05v-2.39A3.71,3.71,0,0,0,90,445.44Z" style="fill:#f0f0f0"></path><path d="M89.13,420.83c0-2.7.32-7.6,2.94-9.89,1-1.13,2.73-1.32,4.56-.27a8.65,8.65,0,0,1,3.23,3.51,8.92,8.92,0,0,1,.67,1.68,18.43,18.43,0,0,1,.88,6.09V433.9s0,.08,0,.12a3.06,3.06,0,0,1-1.8,2.51,9.62,9.62,0,0,1-8.68,0,3.08,3.08,0,0,1-1.8-2.49h0Z" style="fill:#BA68C8"></path><path d="M96.63,410.67a8.65,8.65,0,0,1,3.23,3.51,7.86,7.86,0,0,1,1,4.5c-.35,2.89-2.81,4-5.49,2.43a8.78,8.78,0,0,1-3.23-3.51,7.89,7.89,0,0,1-1-4.51C91.5,410.21,94,409.12,96.63,410.67Z" style="fill:#fff;opacity:0.2"></path></g></g><g id="freepik--lip--inject-79"><path id="freepik--shadow--inject-79" d="M68.46,454.82c1.76,1,2.64,2.35,2.64,3.68s-.88,2.67-2.64,3.69a14.15,14.15,0,0,1-12.77,0c-1.76-1-2.64-2.35-2.64-3.69s.88-2.66,2.64-3.68A14.09,14.09,0,0,1,68.46,454.82Z" style="fill:#e0e0e0"></path><g id="freepik--lip--inject-79"><path d="M56.79,427.89a11.71,11.71,0,0,1,10.57,0,3.73,3.73,0,0,1,2.19,3.05v26.77a3.7,3.7,0,0,1-2.19,3.05,11.65,11.65,0,0,1-10.57,0,3.71,3.71,0,0,1-2.18-3.05V430.94A3.73,3.73,0,0,1,56.79,427.89Z" style="fill:#37474f"></path><path d="M67.36,427.89a3.22,3.22,0,0,1,0,6.1,11.65,11.65,0,0,1-10.57,0,3.22,3.22,0,0,1,0-6.1A11.71,11.71,0,0,1,67.36,427.89Z" style="fill:#455a64"></path><path d="M56.79,442.37a11.71,11.71,0,0,0,10.57,0,3.73,3.73,0,0,0,2.19-3.05v2.38a3.7,3.7,0,0,1-2.19,3.05,11.65,11.65,0,0,1-10.57,0,3.71,3.71,0,0,1-2.18-3.05v-2.38A3.73,3.73,0,0,0,56.79,442.37Z" style="fill:#f0f0f0"></path><path d="M55.92,417.76c0-2.71.32-7.61,2.94-9.89,1-1.14,2.73-1.33,4.56-.28a8.85,8.85,0,0,1,3.23,3.51,9.28,9.28,0,0,1,.67,1.69,18.39,18.39,0,0,1,.88,6.09v11.95s0,.07,0,.11a3,3,0,0,1-1.8,2.51,9.58,9.58,0,0,1-8.69,0A3.07,3.07,0,0,1,55.94,431h0Z" style="fill:#BA68C8"></path><path d="M55.92,417.76c0-2.71.32-7.61,2.94-9.89,1-1.14,2.73-1.33,4.56-.28a8.85,8.85,0,0,1,3.23,3.51,9.28,9.28,0,0,1,.67,1.69,18.39,18.39,0,0,1,.88,6.09v11.95s0,.07,0,.11a3,3,0,0,1-1.8,2.51,9.58,9.58,0,0,1-8.69,0A3.07,3.07,0,0,1,55.94,431h0Z" style="opacity:0.35000000000000003"></path><path d="M63.42,407.59a8.85,8.85,0,0,1,3.23,3.51,7.89,7.89,0,0,1,1,4.51c-.36,2.88-2.82,4-5.49,2.42a8.71,8.71,0,0,1-3.24-3.5,8.07,8.07,0,0,1-1-4.51C58.28,407.13,60.74,406.05,63.42,407.59Z" style="fill:#BA68C8;opacity:0.5"></path></g></g></g><g id="freepik--Makeup--inject-79"><g id="freepik--Primer--inject-79"><path d="M38.59,183.31c8.3,4.79,21.76,4.79,30.06,0s8.31-12.57,0-17.36-21.76-4.79-30.06,0S30.29,178.52,38.59,183.31Z" style="fill:#e0e0e0"></path><path d="M36,99.8v72.37c0,2.61,1.72,5.22,5.17,7.21,6.91,4,18.1,4,25,0,3.45-2,5.18-4.6,5.18-7.21V99.8Z" style="fill:#f0997a"></path><path d="M49.37,182a23.2,23.2,0,0,1-8.25-2.65c-3.45-2-5.17-4.6-5.17-7.21V99.8H49.37Z" style="opacity:0.1"></path><path d="M41.12,107c6.91,4,18.1,4,25,0s6.91-10.44,0-14.43-18.09-4-25,0S34.22,103,41.12,107Z" style="fill:#ffbda7"></path><path d="M40.8,85.76V98.37c0,1.89,1.25,3.79,3.75,5.24,5,2.89,13.13,2.89,18.14,0,2.51-1.45,3.76-3.35,3.76-5.24V85.76Z" style="fill:#37474f"></path><path d="M50.53,105.53a17,17,0,0,1-6-1.92c-2.5-1.45-3.75-3.35-3.75-5.24V85.76h9.73Z" style="fill:#263238"></path><path d="M44.55,91c5,2.9,13.13,2.9,18.14,0s5-7.58,0-10.47-13.13-2.89-18.14,0S39.54,88.1,44.55,91Z" style="fill:#455a64"></path><path d="M43.81,78.93v5.51c0,1.45.95,2.9,2.87,4a15.36,15.36,0,0,0,13.88,0c1.92-1.11,2.88-2.56,2.88-4V78.93Z" style="fill:#ebebeb"></path><path d="M51.26,89.92a13,13,0,0,1-4.58-1.47c-1.92-1.11-2.87-2.56-2.87-4V78.93h7.45Z" style="fill:#e0e0e0"></path><path d="M46.68,82.94a15.36,15.36,0,0,0,13.88,0c3.84-2.21,3.84-5.8,0-8a15.36,15.36,0,0,0-13.88,0C42.85,77.14,42.85,80.73,46.68,82.94Z" style="fill:#fafafa"></path><path d="M47,65.58V78.42a3.28,3.28,0,0,0,1.94,2.7,10.32,10.32,0,0,0,9.37,0,3.28,3.28,0,0,0,1.94-2.7V65.58Z" style="fill:#ebebeb"></path><path d="M50.55,81.79a7.77,7.77,0,0,1-1.61-.67A3.28,3.28,0,0,1,47,78.42V65.58h3.55Z" style="fill:#e0e0e0"></path><path d="M48.94,68.28a10.32,10.32,0,0,0,9.37,0c2.58-1.49,2.58-3.91,0-5.4a10.32,10.32,0,0,0-9.37,0C46.35,64.37,46.35,66.79,48.94,68.28Z" style="fill:#fafafa"></path><path d="M56.87,73.11a3.14,3.14,0,0,1,1.44-2.48c.79-.46,1.43-.09,1.43.82a3.18,3.18,0,0,1-1.43,2.49C57.51,74.4,56.87,74,56.87,73.11Z" style="fill:#455a64"></path><path d="M40.8,64.17c0-1.9,1.25-3.79,3.75-5.24,5-2.89,13.13-2.89,18.14,0,2.51,1.45,3.76,3.34,3.76,5.24V85.75c0,1.9-1.25,3.8-3.76,5.24-5,2.9-13.13,2.9-18.14,0-2.5-1.44-3.75-3.33-3.75-5.22h0V64.17Z" style="fill:#BA68C8;opacity:0.2"></path><path d="M44.55,69.4c5,2.89,13.13,2.89,18.14,0s5-7.58,0-10.47-13.13-2.89-18.14,0S39.54,66.51,44.55,69.4Z" style="fill:#fff;opacity:0.30000000000000004"></path><path d="M71.3,111.4v49.71c0,2.61-1.72,5.22-5.18,7.21-6.9,4-18.09,4-25,0-3.45-2-5.18-4.6-5.18-7.21V111.4c0,2.6,1.73,5.21,5.18,7.21,6.91,4,18.1,4,25,0C69.58,116.61,71.3,114,71.3,111.4Z" style="fill:#BA68C8"></path><path d="M66.12,154.76c-4.86,2.81-11.85,3.63-18,2.48v4.16c6.12,1.15,13.11.33,18-2.47,3.46-2,5.18-4.61,5.18-7.22v-4.16C71.3,150.16,69.58,152.76,66.12,154.76Z" style="fill:#fafafa"></path><path d="M66.12,134.57c-4.86,2.81-11.85,3.63-18,2.48v10c6.12,1.14,13.11.32,18-2.48,3.46-2,5.18-4.61,5.18-7.22v-10C71.3,130,69.58,132.57,66.12,134.57Z" style="fill:#fafafa"></path></g></g><g id="freepik--Mascara--inject-79"><g id="freepik--mascara--inject-79"><path d="M403.35,444.14a2.51,2.51,0,0,0-2.41-.71l-27.47,9.64a2.52,2.52,0,0,0-1.45,2.06,6.11,6.11,0,0,0-.09.86v0a6.89,6.89,0,0,0,.23,1.89l-19.34,6.84-.71-2a.24.24,0,0,0-.31-.14.23.23,0,0,0-.15.31l.71,2-.62.22-.71-2a.23.23,0,0,0-.31-.15.24.24,0,0,0-.15.31l.71,2-.62.22-.7-2a.26.26,0,0,0-.32-.15.27.27,0,0,0-.15.32l.71,2-.74.26-.69-2a.25.25,0,1,0-.46.17l.69,1.95-.61.22-.7-1.95a.24.24,0,1,0-.46.16l.69,1.95-.61.22-.69-1.95a.25.25,0,0,0-.47.16l.7,1.95-.62.22-.69-1.95a.26.26,0,0,0-.31-.15.25.25,0,0,0-.15.32l.69,1.94-.62.22-.69-1.94a.23.23,0,0,0-.31-.15.24.24,0,0,0-.15.31l.69,1.94-.61.22-.69-1.94a.25.25,0,0,0-.47.16l.69,1.94-.61.22-.69-1.94a.24.24,0,0,0-.31-.14.23.23,0,0,0-.15.31l.69,1.94-.62.21-.69-1.93a.23.23,0,0,0-.31-.15.24.24,0,0,0-.15.31l.69,1.94-.89.31a.45.45,0,0,0-.25.36,1.38,1.38,0,0,0,.41,1.17.44.44,0,0,0,.42.13l.9-.32.8,2.25a.24.24,0,0,0,.31.15.23.23,0,0,0,.11-.08.24.24,0,0,0,0-.23l-.8-2.26.62-.21.8,2.25a.24.24,0,0,0,.31.15l.11-.08a.25.25,0,0,0,0-.24l-.8-2.25.61-.21.8,2.24a.25.25,0,0,0,.32.15.18.18,0,0,0,.1-.07.24.24,0,0,0,.05-.24l-.8-2.25.61-.21.8,2.24a.25.25,0,0,0,.31.15.23.23,0,0,0,.11-.08.24.24,0,0,0,0-.23l-.8-2.25.62-.22.8,2.25a.25.25,0,0,0,.31.15l.11-.08a.26.26,0,0,0,0-.24l-.8-2.24.62-.22.79,2.24a.25.25,0,0,0,.32.15.18.18,0,0,0,.1-.07.24.24,0,0,0,0-.24l-.8-2.24.61-.22.8,2.24a.25.25,0,0,0,.31.15.23.23,0,0,0,.11-.08.25.25,0,0,0,0-.24L349,468l.61-.22.8,2.24a.24.24,0,0,0,.31.14.23.23,0,0,0,.15-.31l-.8-2.23.74-.26.78,2.2a.25.25,0,0,0,.32.14.18.18,0,0,0,.1-.07.24.24,0,0,0,.05-.24l-.79-2.2.62-.21.78,2.19a.24.24,0,0,0,.31.15.23.23,0,0,0,.11-.08.24.24,0,0,0,0-.23l-.78-2.2.62-.22.78,2.2a.24.24,0,0,0,.31.15l.11-.08a.25.25,0,0,0,0-.24l-.78-2.19,19.34-6.84a6,6,0,0,0,.28.57,6.51,6.51,0,0,0,1.31,1.67,3.45,3.45,0,0,0,1.13.66,2,2,0,0,0,.73.14,1.63,1.63,0,0,0,.55-.09l27.47-9.64a2.47,2.47,0,0,0,1.44-2.06A7.83,7.83,0,0,0,403.35,444.14Z" style="fill:#e0e0e0"></path><path d="M343.28,470.34a.31.31,0,0,1-.11.08.26.26,0,0,1-.31-.15l-2.08-5.84a.26.26,0,0,1,.15-.32.24.24,0,0,1,.31.15l2.08,5.84A.25.25,0,0,1,343.28,470.34Z" style="fill:#263238"></path><path d="M344.36,470a.26.26,0,0,1-.11.07.23.23,0,0,1-.31-.15L341.86,464a.24.24,0,0,1,.15-.31.25.25,0,0,1,.31.15l2.08,5.84A.26.26,0,0,1,344.36,470Z" style="fill:#263238"></path><path d="M345.43,469.57a.2.2,0,0,1-.1.08.26.26,0,0,1-.32-.15l-2.08-5.84a.25.25,0,0,1,.47-.16l2.08,5.83A.23.23,0,0,1,345.43,469.57Z" style="fill:#263238"></path><path d="M346.51,469.19a.21.21,0,0,1-.11.07.24.24,0,0,1-.31-.14L344,463.28a.26.26,0,0,1,.15-.32.24.24,0,0,1,.31.15l2.08,5.84A.26.26,0,0,1,346.51,469.19Z" style="fill:#263238"></path><path d="M347.59,468.8a.28.28,0,0,1-.11.08.23.23,0,0,1-.31-.15l-2.08-5.84a.23.23,0,0,1,.15-.31.24.24,0,0,1,.31.15l2.08,5.84A.24.24,0,0,1,347.59,468.8Z" style="fill:#263238"></path><path d="M348.66,468.42a.27.27,0,0,1-.1.08.26.26,0,0,1-.32-.15l-2.08-5.84a.25.25,0,0,1,.47-.17l2.08,5.84A.23.23,0,0,1,348.66,468.42Z" style="fill:#263238"></path><path d="M349.74,468a.21.21,0,0,1-.11.07.24.24,0,0,1-.31-.14l-2.08-5.84a.25.25,0,0,1,.15-.32.24.24,0,0,1,.31.15l2.08,5.84A.26.26,0,0,1,349.74,468Z" style="fill:#263238"></path><path d="M350.82,467.65a.28.28,0,0,1-.11.08.23.23,0,0,1-.31-.15l-2.08-5.84a.24.24,0,0,1,.15-.31.24.24,0,0,1,.31.15l2.08,5.84A.24.24,0,0,1,350.82,467.65Z" style="fill:#263238"></path><path d="M352,467.19a.2.2,0,0,1-.1.08.26.26,0,0,1-.32-.15l-2.08-5.84a.25.25,0,0,1,.47-.16l2.08,5.84A.22.22,0,0,1,352,467.19Z" style="fill:#263238"></path><path d="M353.08,466.81a.31.31,0,0,1-.11.08.26.26,0,0,1-.31-.15l-2.08-5.84a.26.26,0,0,1,.15-.32.25.25,0,0,1,.31.15l2.08,5.84A.25.25,0,0,1,353.08,466.81Z" style="fill:#263238"></path><path d="M354.16,466.43a.26.26,0,0,1-.11.07.23.23,0,0,1-.31-.15l-2.08-5.84a.24.24,0,0,1,.15-.31.25.25,0,0,1,.31.15l2.08,5.84A.26.26,0,0,1,354.16,466.43Z" style="fill:#263238"></path><path d="M372,452.71a7.8,7.8,0,0,0,2.32,6.68,2.47,2.47,0,0,0,2.41.71l27.47-9.64a2.46,2.46,0,0,0,1.44-2,7.8,7.8,0,0,0-2.32-6.68,2.49,2.49,0,0,0-2.41-.71l-27.47,9.64A2.47,2.47,0,0,0,372,452.71Z" style="fill:#37474f"></path><path d="M374.35,459.39a2.16,2.16,0,0,0,3.86-1.34,7.81,7.81,0,0,0-2.33-6.68,2.15,2.15,0,0,0-3.85,1.34A7.8,7.8,0,0,0,374.35,459.39Z" style="fill:#455a64"></path><path d="M340.33,467a1.39,1.39,0,0,0,.41,1.17.43.43,0,0,0,.42.12l34.1-12.06a.41.41,0,0,0,.25-.36,1.34,1.34,0,0,0-.4-1.17.42.42,0,0,0-.43-.12l-34.1,12.06A.43.43,0,0,0,340.33,467Z" style="fill:#37474f"></path></g></g><g id="freepik--eye-shadows-palette--inject-79"><g id="freepik--eyeshadow-palette--inject-79"><polygon id="freepik--shadow--inject-79" points="364.1 146.52 427.22 182.96 465.1 161.09 401.97 124.65 364.1 146.52" style="fill:#e0e0e0"></polygon><g id="freepik--eyeshadow-palette--inject-79"><polygon points="365.29 140.61 426.31 175.84 462.92 154.7 401.9 119.47 365.29 140.61" style="fill:#455a64"></polygon><polygon points="365.29 140.61 365.29 144.5 426.31 179.73 426.31 175.84 365.29 140.61" style="fill:#37474f"></polygon><polygon points="462.92 154.7 426.31 175.84 426.31 179.73 462.92 158.6 462.92 154.7" style="fill:#263238"></polygon><path d="M393,140.35a4.8,4.8,0,0,1-2.43,2.75,13.54,13.54,0,0,1-12.21,0,4.78,4.78,0,0,1-2.42-2.75,4.83,4.83,0,0,1,2.43-2.78,13.51,13.51,0,0,1,12.2,0A4.87,4.87,0,0,1,393,140.35Z" style="fill:#BA68C8"></path><path d="M408.56,131.37a4.78,4.78,0,0,1-2.42,2.75,13.5,13.5,0,0,1-12.21,0,4.77,4.77,0,0,1-2.43-2.75,4.83,4.83,0,0,1,2.43-2.78,13.54,13.54,0,0,1,12.21,0A4.85,4.85,0,0,1,408.56,131.37Z" style="fill:#BA68C8"></path><path d="M408.56,131.37a4.78,4.78,0,0,1-2.42,2.75,13.5,13.5,0,0,1-12.21,0,4.77,4.77,0,0,1-2.43-2.75,4.83,4.83,0,0,1,2.43-2.78,13.54,13.54,0,0,1,12.21,0A4.85,4.85,0,0,1,408.56,131.37Z" style="fill:#fff;opacity:0.2"></path><path d="M407.58,148.72a4.83,4.83,0,0,1-2.42,2.76,13.47,13.47,0,0,1-12.21,0,4.81,4.81,0,0,1-2.43-2.76A4.75,4.75,0,0,1,393,146a13.41,13.41,0,0,1,12.21,0A4.76,4.76,0,0,1,407.58,148.72Z" style="fill:#BA68C8"></path><path d="M407.58,148.72a4.83,4.83,0,0,1-2.42,2.76,13.47,13.47,0,0,1-12.21,0,4.81,4.81,0,0,1-2.43-2.76A4.75,4.75,0,0,1,393,146a13.41,13.41,0,0,1,12.21,0A4.76,4.76,0,0,1,407.58,148.72Z" style="opacity:0.1"></path><path d="M423.13,139.74a4.8,4.8,0,0,1-2.43,2.75,13.41,13.41,0,0,1-12.21,0,4.78,4.78,0,0,1-2.42-2.75A4.79,4.79,0,0,1,408.5,137a13.45,13.45,0,0,1,12.2,0A4.83,4.83,0,0,1,423.13,139.74Z" style="fill:#BA68C8"></path><path d="M423.13,139.74a4.8,4.8,0,0,1-2.43,2.75,13.41,13.41,0,0,1-12.21,0,4.78,4.78,0,0,1-2.42-2.75A4.79,4.79,0,0,1,408.5,137a13.45,13.45,0,0,1,12.2,0A4.83,4.83,0,0,1,423.13,139.74Z" style="fill:#fff;opacity:0.4"></path><path d="M422.15,157.09a4.83,4.83,0,0,1-2.43,2.77,13.54,13.54,0,0,1-12.21,0,4.8,4.8,0,0,1-2.42-2.77,4.73,4.73,0,0,1,2.42-2.76,13.54,13.54,0,0,1,12.21,0A4.78,4.78,0,0,1,422.15,157.09Z" style="fill:#BA68C8"></path><path d="M422.15,157.09a4.83,4.83,0,0,1-2.43,2.77,13.54,13.54,0,0,1-12.21,0,4.8,4.8,0,0,1-2.42-2.77,4.73,4.73,0,0,1,2.42-2.76,13.54,13.54,0,0,1,12.21,0A4.78,4.78,0,0,1,422.15,157.09Z" style="opacity:0.2"></path><path d="M437.69,148.11a4.84,4.84,0,0,1-2.42,2.77,13.54,13.54,0,0,1-12.21,0,4.79,4.79,0,0,1-2.43-2.77,4.75,4.75,0,0,1,2.43-2.76,13.54,13.54,0,0,1,12.21,0A4.8,4.8,0,0,1,437.69,148.11Z" style="fill:#BA68C8"></path><path d="M437.69,148.11a4.84,4.84,0,0,1-2.42,2.77,13.54,13.54,0,0,1-12.21,0,4.79,4.79,0,0,1-2.43-2.77,4.75,4.75,0,0,1,2.43-2.76,13.54,13.54,0,0,1,12.21,0A4.8,4.8,0,0,1,437.69,148.11Z" style="fill:#fff;opacity:0.6000000000000001"></path><path d="M436.71,165.48a4.8,4.8,0,0,1-2.43,2.75,13.51,13.51,0,0,1-12.2,0,4.77,4.77,0,0,1-2.43-2.75,4.78,4.78,0,0,1,2.43-2.78,13.54,13.54,0,0,1,12.21,0A4.83,4.83,0,0,1,436.71,165.48Z" style="fill:#BA68C8"></path><path d="M436.71,165.48a4.8,4.8,0,0,1-2.43,2.75,13.51,13.51,0,0,1-12.2,0,4.77,4.77,0,0,1-2.43-2.75,4.78,4.78,0,0,1,2.43-2.78,13.54,13.54,0,0,1,12.21,0A4.83,4.83,0,0,1,436.71,165.48Z" style="opacity:0.30000000000000004"></path><path d="M452.26,156.5a4.8,4.8,0,0,1-2.43,2.75,13.47,13.47,0,0,1-12.21,0,4.78,4.78,0,0,1-2.42-2.75,4.79,4.79,0,0,1,2.42-2.78,13.5,13.5,0,0,1,12.21,0A4.83,4.83,0,0,1,452.26,156.5Z" style="fill:#BA68C8"></path><path d="M452.26,156.5a4.8,4.8,0,0,1-2.43,2.75,13.47,13.47,0,0,1-12.21,0,4.78,4.78,0,0,1-2.42-2.75,4.79,4.79,0,0,1,2.42-2.78,13.5,13.5,0,0,1,12.21,0A4.83,4.83,0,0,1,452.26,156.5Z" style="fill:#fff;opacity:0.8"></path><polygon points="410.4 82.1 471.41 117.33 462.92 154.7 401.9 119.47 410.4 82.1" style="fill:#37474f"></polygon><polygon points="405.6 118.14 412.7 86.9 467.71 118.66 460.61 149.9 405.6 118.14" style="fill:#fafafa"></polygon><polygon points="410.4 82.1 414.55 80.61 475.57 115.83 471.41 117.33 410.4 82.1" style="fill:#455a64"></polygon><polygon points="462.92 154.7 471.41 117.33 475.57 115.83 467.07 153.2 462.92 154.7" style="fill:#263238"></polygon><g style="opacity:0.1"><polygon points="444.19 105.09 442.43 104.06 412.93 122.37 414.69 123.39 444.19 105.09" style="fill:#BA68C8"></polygon><polygon points="450.29 108.61 446.76 106.56 417.25 124.87 420.79 126.91 450.29 108.61" style="fill:#BA68C8"></polygon><polygon points="418.67 90.35 410.81 95.22 409.69 100.15 422.2 92.39 418.67 90.35" style="fill:#BA68C8"></polygon><polygon points="440.45 102.92 431.65 97.84 406.7 113.32 405.6 118.14 410.95 121.23 440.45 102.92" style="fill:#BA68C8"></polygon><polygon points="425.86 94.5 424.09 93.48 409.09 102.78 408.53 105.24 425.86 94.5" style="fill:#BA68C8"></polygon><polygon points="467.17 121.05 467.71 118.66 460.62 114.57 431.12 132.87 439.92 137.96 467.17 121.05" style="fill:#BA68C8"></polygon><polygon points="464.56 132.52 465.12 130.06 446.38 141.68 448.15 142.7 464.56 132.52" style="fill:#BA68C8"></polygon><polygon points="462.07 143.49 462.63 141.03 454.25 146.23 456.02 147.25 462.07 143.49" style="fill:#BA68C8"></polygon><polygon points="466.73 122.98 441.31 138.75 444.84 140.79 465.61 127.91 466.73 122.98" style="fill:#BA68C8"></polygon></g></g><path d="M393,140.35a4.87,4.87,0,0,0-2.43-2.78,13.51,13.51,0,0,0-12.2,0,4.83,4.83,0,0,0-2.43,2.78c-.41-1.52.4-3.12,2.43-4.3a13.51,13.51,0,0,1,12.2,0C392.61,137.22,393.42,138.83,393,140.35Z" style="fill:#263238"></path><path d="M393,140.35a4.8,4.8,0,0,1-2.43,2.75,13.54,13.54,0,0,1-12.21,0,4.78,4.78,0,0,1-2.42-2.75,4.83,4.83,0,0,1,2.43-2.78,13.51,13.51,0,0,1,12.2,0A4.87,4.87,0,0,1,393,140.35Z" style="fill:#BA68C8"></path><path d="M408.56,131.37a4.85,4.85,0,0,0-2.42-2.78,13.54,13.54,0,0,0-12.21,0,4.83,4.83,0,0,0-2.43,2.78c-.4-1.52.41-3.13,2.43-4.3a13.5,13.5,0,0,1,12.21,0C408.16,128.25,409,129.85,408.56,131.37Z" style="fill:#263238"></path><path d="M408.56,131.37a4.78,4.78,0,0,1-2.42,2.75,13.5,13.5,0,0,1-12.21,0,4.77,4.77,0,0,1-2.43-2.75,4.83,4.83,0,0,1,2.43-2.78,13.54,13.54,0,0,1,12.21,0A4.85,4.85,0,0,1,408.56,131.37Z" style="fill:#fff;opacity:0.2"></path><path d="M407.58,148.72a4.76,4.76,0,0,0-2.42-2.76A13.41,13.41,0,0,0,393,146a4.75,4.75,0,0,0-2.43,2.76c-.41-1.52.41-3.12,2.43-4.28a13.41,13.41,0,0,1,12.21,0C407.18,145.6,408,147.2,407.58,148.72Z" style="fill:#263238"></path><path d="M407.58,148.72a4.83,4.83,0,0,1-2.42,2.76,13.47,13.47,0,0,1-12.21,0,4.81,4.81,0,0,1-2.43-2.76A4.75,4.75,0,0,1,393,146a13.41,13.41,0,0,1,12.21,0A4.76,4.76,0,0,1,407.58,148.72Z" style="opacity:0.1"></path><path d="M423.13,139.74A4.83,4.83,0,0,0,420.7,137a13.45,13.45,0,0,0-12.2,0,4.79,4.79,0,0,0-2.43,2.77c-.4-1.51.4-3.12,2.43-4.29a13.45,13.45,0,0,1,12.2,0C422.72,136.62,423.53,138.22,423.13,139.74Z" style="fill:#263238"></path><path d="M423.13,139.74a4.8,4.8,0,0,1-2.43,2.75,13.41,13.41,0,0,1-12.21,0,4.78,4.78,0,0,1-2.42-2.75A4.79,4.79,0,0,1,408.5,137a13.45,13.45,0,0,1,12.2,0A4.83,4.83,0,0,1,423.13,139.74Z" style="fill:#fff;opacity:0.4"></path><path d="M422.15,157.09a4.78,4.78,0,0,0-2.43-2.76,13.54,13.54,0,0,0-12.21,0,4.73,4.73,0,0,0-2.42,2.76c-.4-1.52.4-3.11,2.42-4.28a13.54,13.54,0,0,1,12.21,0C421.74,154,422.55,155.57,422.15,157.09Z" style="fill:#263238"></path><path d="M422.15,157.09a4.83,4.83,0,0,1-2.43,2.77,13.54,13.54,0,0,1-12.21,0,4.8,4.8,0,0,1-2.42-2.77,4.73,4.73,0,0,1,2.42-2.76,13.54,13.54,0,0,1,12.21,0A4.78,4.78,0,0,1,422.15,157.09Z" style="opacity:0.2"></path><path d="M437.69,148.11a4.8,4.8,0,0,0-2.42-2.76,13.54,13.54,0,0,0-12.21,0,4.75,4.75,0,0,0-2.43,2.76c-.4-1.52.41-3.12,2.43-4.28a13.54,13.54,0,0,1,12.21,0C437.28,145,438.09,146.59,437.69,148.11Z" style="fill:#263238"></path><path d="M437.69,148.11a4.84,4.84,0,0,1-2.42,2.77,13.54,13.54,0,0,1-12.21,0,4.79,4.79,0,0,1-2.43-2.77,4.75,4.75,0,0,1,2.43-2.76,13.54,13.54,0,0,1,12.21,0A4.8,4.8,0,0,1,437.69,148.11Z" style="fill:#fff;opacity:0.6000000000000001"></path><path d="M436.71,165.48a4.83,4.83,0,0,0-2.42-2.78,13.54,13.54,0,0,0-12.21,0,4.78,4.78,0,0,0-2.43,2.78c-.4-1.52.41-3.13,2.43-4.3a13.54,13.54,0,0,1,12.21,0C436.31,162.35,437.11,164,436.71,165.48Z" style="fill:#263238"></path><path d="M436.71,165.48a4.8,4.8,0,0,1-2.43,2.75,13.51,13.51,0,0,1-12.2,0,4.77,4.77,0,0,1-2.43-2.75,4.78,4.78,0,0,1,2.43-2.78,13.54,13.54,0,0,1,12.21,0A4.83,4.83,0,0,1,436.71,165.48Z" style="opacity:0.30000000000000004"></path><path d="M452.26,156.5a4.83,4.83,0,0,0-2.43-2.77,13.5,13.5,0,0,0-12.21,0,4.79,4.79,0,0,0-2.42,2.78c-.4-1.52.4-3.13,2.42-4.3a13.5,13.5,0,0,1,12.21,0C451.85,153.38,452.66,155,452.26,156.5Z" style="fill:#263238"></path><path d="M452.26,156.5a4.8,4.8,0,0,1-2.43,2.75,13.47,13.47,0,0,1-12.21,0,4.78,4.78,0,0,1-2.42-2.75,4.79,4.79,0,0,1,2.42-2.78,13.5,13.5,0,0,1,12.21,0A4.83,4.83,0,0,1,452.26,156.5Z" style="fill:#fff;opacity:0.8"></path><path d="M393,140.35a4.8,4.8,0,0,1-2.43,2.75,13.54,13.54,0,0,1-12.21,0,4.78,4.78,0,0,1-2.42-2.75,4.83,4.83,0,0,1,2.43-2.78,13.51,13.51,0,0,1,12.2,0A4.87,4.87,0,0,1,393,140.35Z" style="fill:#BA68C8"></path><path d="M408.56,131.37a4.78,4.78,0,0,1-2.42,2.75,13.5,13.5,0,0,1-12.21,0,4.77,4.77,0,0,1-2.43-2.75,4.83,4.83,0,0,1,2.43-2.78,13.54,13.54,0,0,1,12.21,0A4.85,4.85,0,0,1,408.56,131.37Z" style="fill:#fff;opacity:0.2"></path><path d="M407.58,148.72a4.83,4.83,0,0,1-2.42,2.76,13.47,13.47,0,0,1-12.21,0,4.81,4.81,0,0,1-2.43-2.76A4.75,4.75,0,0,1,393,146a13.41,13.41,0,0,1,12.21,0A4.76,4.76,0,0,1,407.58,148.72Z" style="opacity:0.1"></path><path d="M423.13,139.74a4.8,4.8,0,0,1-2.43,2.75,13.41,13.41,0,0,1-12.21,0,4.78,4.78,0,0,1-2.42-2.75A4.79,4.79,0,0,1,408.5,137a13.45,13.45,0,0,1,12.2,0A4.83,4.83,0,0,1,423.13,139.74Z" style="fill:#fff;opacity:0.4"></path><path d="M422.15,157.09a4.83,4.83,0,0,1-2.43,2.77,13.54,13.54,0,0,1-12.21,0,4.8,4.8,0,0,1-2.42-2.77,4.73,4.73,0,0,1,2.42-2.76,13.54,13.54,0,0,1,12.21,0A4.78,4.78,0,0,1,422.15,157.09Z" style="opacity:0.2"></path><path d="M437.69,148.11a4.84,4.84,0,0,1-2.42,2.77,13.54,13.54,0,0,1-12.21,0,4.79,4.79,0,0,1-2.43-2.77,4.75,4.75,0,0,1,2.43-2.76,13.54,13.54,0,0,1,12.21,0A4.8,4.8,0,0,1,437.69,148.11Z" style="fill:#fff;opacity:0.6000000000000001"></path><path d="M436.71,165.48a4.8,4.8,0,0,1-2.43,2.75,13.51,13.51,0,0,1-12.2,0,4.77,4.77,0,0,1-2.43-2.75,4.78,4.78,0,0,1,2.43-2.78,13.54,13.54,0,0,1,12.21,0A4.83,4.83,0,0,1,436.71,165.48Z" style="opacity:0.30000000000000004"></path><path d="M452.26,156.5a4.8,4.8,0,0,1-2.43,2.75,13.47,13.47,0,0,1-12.21,0,4.78,4.78,0,0,1-2.42-2.75,4.79,4.79,0,0,1,2.42-2.78,13.5,13.5,0,0,1,12.21,0A4.83,4.83,0,0,1,452.26,156.5Z" style="fill:#fff;opacity:0.8"></path></g></g><g id="freepik--Sparkles--inject-79"><g id="freepik--Shine--inject-79"><path d="M190.59,64.69c-.86,12.11-2.49,15.17-11.68,16.66,8.65,0,11.68,6.39,11.68,13.69.87-11.75,2.6-12.35,10.82-13.69C191.72,79.86,190.59,75.51,190.59,64.69Z" style="fill:#e0e0e0"></path><path d="M344.81,114.88c-.86,12.12-2.5,15.18-11.68,16.66,8.65,0,11.68,6.39,11.68,13.69.87-11.74,2.6-12.34,10.82-13.69C345.94,130.06,344.81,125.7,344.81,114.88Z" style="fill:#e0e0e0"></path><path d="M208.93,60.37c-.46,6.41-1.32,8-6.18,8.81,4.58,0,6.18,3.38,6.18,7.24.45-6.21,1.37-6.53,5.72-7.24C209.52,68.39,208.93,66.09,208.93,60.37Z" style="fill:#e0e0e0"></path><path d="M327.41,110.38c-.46,6.4-1.32,8-6.18,8.81,4.58,0,6.18,3.38,6.18,7.23.46-6.2,1.37-6.52,5.72-7.23C328,118.4,327.41,116.1,327.41,110.38Z" style="fill:#e0e0e0"></path></g></g><g id="freepik--speech-bubble--inject-79"><g id="freepik--speech-bubble--inject-79"><g id="freepik--speech-bubble--inject-79"><path d="M312.8,35.28A34.93,34.93,0,0,0,299.1,57l-.51,4a35,35,0,0,0,69,10.66l.71-3.94A35,35,0,0,0,312.8,35.28Z" style="fill:#fff"></path><path d="M311.1,32.84A38.05,38.05,0,0,0,299.5,80.5l-6.37,9.94a2.2,2.2,0,0,0,2.42,3.32l11.41-3a38,38,0,1,0,4.14-57.88ZM361.79,42.9a34.83,34.83,0,0,1,6.44,24.9l-.71,3.94A35,35,0,0,1,298.59,61l.52-4A35,35,0,0,1,361.79,42.9Z" style="fill:#455a64"></path></g><path d="M360,64.82a16.09,16.09,0,0,0-16.72.63,19.32,19.32,0,0,0-19.6,0A16.09,16.09,0,0,0,307,64.82a26.66,26.66,0,0,1,34.49-23,9.48,9.48,0,0,0-1.08,2.52,6.24,6.24,0,0,0-.15,2.68,6.53,6.53,0,0,0,6.38,5.45h.24a6.4,6.4,0,0,0,5.65-3.86A26.56,26.56,0,0,1,360,64.82Z" style="fill:#263238"></path><rect x="332.98" y="38.06" width="1.03" height="40.94" style="fill:#263238"></rect><path d="M332.26,78v6.83a2.51,2.51,0,0,1-5,0,1.24,1.24,0,1,0-2.47,0,5,5,0,1,0,10,0V78Z" style="fill:#263238"></path><path d="M351.32,44.71c-.4-2-3.59-5.91-4.49-7.94a.25.25,0,0,0-.44,0c-.9,2-4.09,6-4.5,7.94a4.77,4.77,0,0,0-.12,2.07,5,5,0,0,0,5,4.14A4.89,4.89,0,0,0,351.51,46,4.79,4.79,0,0,0,351.32,44.71Z" style="fill:#BA68C8"></path></g></g></svg>
